<?xml version="1.0" encoding="UTF-8"?>
<svg id="Layer_2" data-name="Layer 2" xmlns="http://www.w3.org/2000/svg" viewBox="0 0 1181.92 334.97">
  <defs>
    <style>
      .cls-1 {
        fill: #fff;
      }

      .cls-2, .cls-3, .cls-4, .cls-5 {
        fill: #db4468;
      }

      .cls-3, .cls-4, .cls-5 {
        stroke: #db4468;
        stroke-miterlimit: 10;
      }

      .cls-6 {
        fill: #f3f1f9;
      }

      .cls-4 {
        stroke-width: 2px;
      }

      .cls-7 {
        fill: #ff517b;
      }

      .cls-5 {
        stroke-width: 3px;
      }

      .cls-8 {
        fill: none;
      }

      .cls-9 {
        fill: #f3f1f8;
      }
    </style>
  </defs>
  <g id="_notGDC_-_Banner_v2" data-name="#notGDC - Banner v2">
    <g id="_notGDC_text" data-name="#notGDC text">
      <g id="BG">
        <polygon class="cls-2" points="676.73 213.55 682.6 29.99 27.36 29.99 17.63 213.55 676.73 213.55"/>
      </g>
      <g id="_notGDC_Compound_Path_" data-name="#notGDC (Compound Path)">
        <path class="cls-8" d="m584.51,309.01c-.99-.61-2.11-.92-3.36-.92s-2.38.31-3.38.94-1.78,1.48-2.34,2.56c-.56,1.08-.83,2.3-.8,3.66-.03,1.36.24,2.58.8,3.66.56,1.08,1.34,1.93,2.34,2.56,1,.63,2.13.94,3.38.94s2.37-.31,3.36-.94c.99-.63,1.76-1.48,2.32-2.56.56-1.08.83-2.3.8-3.66.03-1.39-.24-2.62-.8-3.7-.56-1.08-1.33-1.93-2.32-2.54Z"/>
        <path class="cls-8" d="m756.98,188.26h-42.4c-.01.15-.04.28-.04.4,0,8.4,0,16.8,0,25.21,0,1.14.65,2.02,1.68,2.29.33.09.69.09,1.03.09,6.68,0,13.36-.02,20.04-.02,5.67,0,11.35.01,17.02.02,1.78,0,2.68-.89,2.68-2.65,0-8.26,0-16.51,0-24.77,0-.19-.02-.39-.03-.58Zm-9.48,8.84c-.15.21-.33.39-.51.57-4.31,4.31-8.62,8.62-12.93,12.93-1.43,1.43-2.9,1.31-4.1-.33-2.04-2.79-4.09-5.58-6.13-8.36-.6-.81-.69-1.7-.21-2.58.46-.84,1.21-1.26,2.17-1.22.8.04,1.4.45,1.87,1.09,1.42,1.95,2.85,3.9,4.28,5.84.13.18.26.35.52.68.16-.22.26-.41.4-.55,3.63-3.64,7.27-7.27,10.9-10.91.64-.64,1.36-.98,2.27-.8,1.67.32,2.45,2.25,1.47,3.64Z"/>
        <path class="cls-8" d="m754.31,308.69c-.77-.4-1.61-.6-2.52-.6-1.44,0-2.65.27-3.64.82-.99.55-1.73,1.35-2.24,2.4-.24.5-.42,1.05-.54,1.66h11.74v-.28c-.08-.88-.37-1.67-.88-2.36-.51-.69-1.15-1.24-1.92-1.64Z"/>
        <path class="cls-8" d="m685.67,308.69c-.77-.4-1.61-.6-2.52-.6-1.44,0-2.65.27-3.64.82-.99.55-1.73,1.35-2.24,2.4-.24.5-.42,1.05-.54,1.66h11.74v-.28c-.08-.88-.37-1.67-.88-2.36-.51-.69-1.15-1.24-1.92-1.64Z"/>
        <path class="cls-8" d="m646.99,308.69c-.77-.4-1.61-.6-2.52-.6-1.44,0-2.65.27-3.64.82-.99.55-1.73,1.35-2.24,2.4-.24.5-.42,1.05-.54,1.66h11.74v-.28c-.08-.88-.37-1.67-.88-2.36-.51-.69-1.15-1.24-1.92-1.64Z"/>
        <path class="cls-8" d="m978.19,309.87c-.83-.52-1.76-.78-2.8-.78s-2.01.27-2.84.8c-.83.53-1.48,1.25-1.96,2.16-.48.91-.71,1.95-.68,3.12-.03,1.15.2,2.18.68,3.1.48.92,1.13,1.64,1.96,2.16.83.52,1.77.78,2.84.78s1.97-.26,2.8-.78c.83-.52,1.47-1.24,1.94-2.16s.69-1.95.66-3.1c.03-1.17-.19-2.22-.66-3.14s-1.11-1.64-1.94-2.16Z"/>
        <path class="cls-8" d="m1027.35,309.51c-.64-.33-1.36-.5-2.16-.5-1.17,0-2.17.23-2.98.68s-1.43,1.12-1.86,2c-.19.39-.33.82-.43,1.28h9.71v-.16c-.05-.72-.29-1.37-.7-1.94-.41-.57-.94-1.03-1.58-1.36Z"/>
        <path class="cls-8" d="m860.75,200.02c.46-1.03.69-2.24.69-3.63s-.23-2.66-.69-3.69c-.46-1.03-1.11-1.81-1.95-2.34-.84-.53-1.85-.8-3.03-.8s-2.17.27-3,.8c-.83.53-1.46,1.31-1.9,2.34-.44,1.03-.66,2.25-.66,3.69s.22,2.6.66,3.63c.44,1.03,1.07,1.81,1.9,2.34.82.53,1.82.8,3,.8s2.18-.27,3.03-.8c.84-.53,1.49-1.31,1.95-2.34Z"/>
        <path class="cls-8" d="m1034.63,180.61c-2.24,0-3.97.97-5.2,2.92-1.23,1.94-1.84,4.71-1.84,8.31s.61,6.1,1.84,7.95c1.23,1.85,2.96,2.78,5.2,2.78s3.97-.93,5.2-2.78c1.23-1.85,1.84-4.5,1.84-7.95s-.62-6.36-1.84-8.31c-1.23-1.94-2.96-2.92-5.2-2.92Z"/>
        <path class="cls-8" d="m912.31,309.51c-.64-.33-1.36-.5-2.16-.5-1.17,0-2.17.23-2.98.68s-1.43,1.12-1.86,2c-.19.39-.33.82-.43,1.28h9.71v-.16c-.05-.72-.29-1.37-.7-1.94-.41-.57-.94-1.03-1.58-1.36Z"/>
        <path class="cls-8" d="m815.39,309.01c-.99-.61-2.11-.92-3.36-.92s-2.38.31-3.38.94-1.78,1.48-2.34,2.56c-.56,1.08-.83,2.3-.8,3.66-.03,1.36.24,2.58.8,3.66.56,1.08,1.34,1.93,2.34,2.56,1,.63,2.13.94,3.38.94s2.37-.31,3.36-.94c.99-.63,1.76-1.48,2.32-2.56s.83-2.3.8-3.66c.03-1.39-.24-2.62-.8-3.7s-1.33-1.93-2.32-2.54Z"/>
        <path class="cls-8" d="m498.95,309.01c-.99-.61-2.11-.92-3.36-.92s-2.38.31-3.38.94-1.78,1.48-2.34,2.56c-.56,1.08-.83,2.3-.8,3.66-.03,1.36.24,2.58.8,3.66s1.34,1.93,2.34,2.56c1,.63,2.13.94,3.38.94s2.37-.31,3.36-.94c.99-.63,1.76-1.48,2.32-2.56s.83-2.3.8-3.66c.03-1.39-.24-2.62-.8-3.7s-1.33-1.93-2.32-2.54Z"/>
        <path class="cls-8" d="m113.76,309.05c-.96-.61-2.07-.92-3.32-.92s-2.31.31-3.26.92c-.95.61-1.69,1.45-2.24,2.52-.55,1.07-.82,2.28-.82,3.64s.27,2.62.82,3.7c.55,1.08,1.29,1.93,2.24,2.54.95.61,2.03.92,3.26.92s2.36-.31,3.32-.92,1.71-1.46,2.26-2.54c.55-1.08.82-2.31.82-3.7s-.27-2.57-.82-3.64c-.55-1.07-1.3-1.91-2.26-2.52Z"/>
        <path class="cls-8" d="m210.72,308.85c-.96-.64-2.07-.96-3.32-.96s-2.36.32-3.32.96c-.96.64-1.71,1.51-2.26,2.62-.55,1.11-.82,2.37-.82,3.78s.27,2.67.82,3.78c.55,1.11,1.3,1.98,2.26,2.62.96.64,2.07.96,3.32.96s2.36-.32,3.32-.96c.96-.64,1.71-1.51,2.26-2.62.55-1.11.82-2.37.82-3.78s-.27-2.67-.82-3.78c-.55-1.11-1.3-1.98-2.26-2.62Z"/>
        <path class="cls-8" d="m51.28,309.05c-.96-.61-2.07-.92-3.32-.92s-2.31.31-3.26.92c-.95.61-1.69,1.45-2.24,2.52-.55,1.07-.82,2.28-.82,3.64s.27,2.62.82,3.7c.55,1.08,1.29,1.93,2.24,2.54.95.61,2.03.92,3.26.92s2.36-.31,3.32-.92,1.71-1.46,2.26-2.54c.55-1.08.82-2.31.82-3.7s-.27-2.57-.82-3.64c-.55-1.07-1.3-1.91-2.26-2.52Z"/>
        <path class="cls-8" d="m88.34,309.01c-1-.61-2.15-.92-3.46-.92s-2.42.31-3.42.94-1.79,1.48-2.36,2.56c-.57,1.08-.86,2.3-.86,3.66s.29,2.58.86,3.66c.57,1.08,1.36,1.93,2.36,2.54s2.14.92,3.42.92,2.47-.31,3.48-.92c1.01-.61,1.8-1.45,2.36-2.52.56-1.07.84-2.29.84-3.68s-.29-2.62-.86-3.7c-.57-1.08-1.36-1.93-2.36-2.54Z"/>
        <path class="cls-8" d="m175.4,308.69c-.77-.4-1.61-.6-2.52-.6-1.44,0-2.65.27-3.64.82-.99.55-1.73,1.35-2.24,2.4-.24.5-.42,1.05-.54,1.66h11.74v-.28c-.08-.88-.37-1.67-.88-2.36-.51-.69-1.15-1.24-1.92-1.64Z"/>
        <path class="cls-8" d="m235.4,308.69c-.77-.4-1.61-.6-2.52-.6-1.44,0-2.65.27-3.64.82-.99.55-1.73,1.35-2.24,2.4-.24.5-.42,1.05-.54,1.66h11.74v-.28c-.08-.88-.37-1.67-.88-2.36-.51-.69-1.15-1.24-1.92-1.64Z"/>
        <path class="cls-8" d="m340.2,309.13c-.96-.61-2.07-.92-3.32-.92s-2.36.3-3.32.9-1.72,1.43-2.28,2.5-.84,2.28-.84,3.64.28,2.57.84,3.64c.56,1.07,1.32,1.91,2.28,2.52.96.61,2.07.92,3.32.92s2.32-.31,3.28-.92c.96-.61,1.72-1.45,2.28-2.52.56-1.07.84-2.28.84-3.64s-.27-2.57-.82-3.62c-.55-1.05-1.3-1.89-2.26-2.5Z"/>
        <path class="cls-8" d="m400.51,308.69c-.77-.4-1.61-.6-2.52-.6-1.44,0-2.65.27-3.64.82-.99.55-1.73,1.35-2.24,2.4-.24.5-.42,1.05-.54,1.66h11.74v-.28c-.08-.88-.37-1.67-.88-2.36-.51-.69-1.15-1.24-1.92-1.64Z"/>
        <path class="cls-8" d="m280.76,308.69c-.77-.4-1.61-.6-2.52-.6-1.44,0-2.65.27-3.64.82-.99.55-1.73,1.35-2.24,2.4-.24.5-.42,1.05-.54,1.66h11.74v-.28c-.08-.88-.37-1.67-.88-2.36-.51-.69-1.15-1.24-1.92-1.64Z"/>
        <path class="cls-8" d="m314.68,309.01c-.99-.61-2.11-.92-3.36-.92s-2.38.31-3.38.94-1.78,1.48-2.34,2.56c-.56,1.08-.83,2.3-.8,3.66-.03,1.36.24,2.58.8,3.66s1.34,1.93,2.34,2.56c1,.63,2.13.94,3.38.94s2.37-.31,3.36-.94c.99-.63,1.76-1.48,2.32-2.56s.83-2.3.8-3.66c.03-1.39-.24-2.62-.8-3.7s-1.33-1.93-2.32-2.54Z"/>
        <path class="cls-8" d="m866.07,309.51c-.64-.33-1.36-.5-2.16-.5-1.17,0-2.17.23-2.98.68s-1.43,1.12-1.86,2c-.19.39-.33.82-.43,1.28h9.71v-.16c-.05-.72-.29-1.37-.7-1.94-.41-.57-.94-1.03-1.58-1.36Z"/>
        <polygon class="cls-8" points="1165.36 195.57 1165.36 188.06 1159.21 195.57 1165.36 195.57"/>
        <path class="cls-7" d="m153.85,181.07c-2.65-1.98-5.3-3.95-7.96-5.93-6.11-.4-10.5-2.8-13.29-6.1-3.74,4.09-9.45,6.16-17.02,6.16-12.97,0-18.88-8.59-18.88-16.57,0-.66,0-.93.23-2.48-5.88-1.84-8.55-5.78-9.71-8.4l-.28-.67c-.76-2.02-1.13-4.31-1.13-6.98,0-1.8.18-3.72.53-5.85-18.5-13.62-34.44-29.67-45.14-51.15-2.81-5.63-5.66-11.25-8.68-17.21l.96-27.6c.16-.21.2-.26.32-.28h-.42s-6.35,167-6.35,167l166.14.25-20.75-.03c-3.07-9.1-9.2-17.18-18.58-24.16Zm-63.28,24.04l-63.21-.1q.35,0,.35-1.01l2.23-63.91c4.13,3.91,8.79,7.5,13.99,10.78,10.88,6.85,21.32,14.56,31.13,22.87,9.8,8.3,15.99,18.7,15.5,31.37Z"/>
        <path class="cls-7" d="m152.35,46.31c6.9-1.76,12.98-4.41,18.06-8.09l-68.7-.1c15.35,9.06,32.01,12.96,50.64,8.2Z"/>
        <path class="cls-2" d="m531.06,67.81c25.83-22.22,60.88-16.95,86.82,4.91,3.35,2.83,7.27,7.8,11.56,2.53,4.54-5.59-1.47-8.6-4.98-11.38-20.03-15.9-42.25-25.59-68.27-19.8-8.9,1.98-18,6-25.37,11.35-15.5,11.26-31.07,15.78-48.64,5.92-10.63-5.96-19.54-13.22-25.37-22.68l-12.8-.02c3.95,8.11,10.16,15.93,19.04,22.98,3.98,3.16,8.32,6,12.81,8.5,9,.53,17.34,3.25,24.88,8.15,10.86.67,21.3-2.7,30.31-10.45Z"/>
        <path class="cls-3" d="m75.06,173.74c-9.81-8.31-20.26-16.02-31.13-22.87-5.21-3.28-9.87-6.87-13.99-10.78l-2.23,63.91q0,1-.35,1.01l63.21.1c.49-12.67-5.7-23.07-15.5-31.37Z"/>
        <path class="cls-4" d="m608.92,38.9c14.12,10.81,28.26,21.62,42.38,32.43l.73-13.57c-8.18-6.28-16.36-12.55-24.54-18.83l-18.57-.03Z"/>
        <path class="cls-2" d="m309.3,163.85c-3.26,3.37-6.94,6.1-11.02,8.12-6.22,3.09-12.81,4.66-19.58,4.66s-13.55-1.68-19.88-5c-2.79-1.46-5.39-3.25-7.8-5.31-2.43,4.32-7.75,9.21-19.4,9.21s-16.84-5-19.32-9.19c-2.43,4.38-7.74,9.19-19.29,9.19s-17.27-5.29-19.57-9.72l-.23-.46c-1.07-2.29-1.73-4.45-2-6.59-.09-.68-.15-1.43-.2-2.28-.34.08-.68.16-1.04.23-.36,1.98-.65,3.33-.94,4.37-.51,1.84-1.35,3.68-2.56,5.64l-.38.59c-3.64,5.24-9.83,7.89-18.4,7.89-.62,0-1.22-.03-1.81-.06,2.65,1.98,5.31,3.96,7.96,5.93,9.38,6.99,15.51,15.07,18.58,24.16l20.75.03h0s145.74.22,145.74.22c-2.41-1.54-4.81-3.14-7.16-4.86-13.94-10.17-21.55-22.17-22.47-36.78Z"/>
        <path class="cls-3" d="m251.73,37.84l-.14.27c-3.7,7.29-9.19,14.35-16.8,21.58-21.74,20.64-45.5,20.2-70.64-1.33-.59-.5-1.05-1.18-1.63-2.04-.2-.3-.41-.61-.64-.94,10.16-3.66,18.4-9.32,24.5-16.84l.66-.81-16.79-.03-.13.1c-4.86,3.52-10.88,6.22-17.89,8.01-17.12,4.38-33.56,1.72-50.26-8.14l-.12-.07-68.09-.1c-.33.04-.49.24-.66.47l-.1.13-.97,27.76v.13s.14.29.14.29c2.99,5.89,5.81,11.45,8.59,17.03,9.65,19.38,24.04,35.69,45.29,51.33l.66.48.16-1.02c.61-3.6,2.09-6.82,4.37-9.57.46-.55.94-1.07,1.43-1.55l.27-.27-.19-.33c-.31-.53-.58-1.09-.81-1.64l-.29-.78c-.64-1.91-.95-4.01-.95-6.43,0-1.8.18-3.74.56-5.93.61-3.6,2.08-6.82,4.37-9.56,2.75-3.31,6-5.32,9.64-5.99.73-.13,1.5-.23,2.36-.3l.39-.03.23-1.37c.05-.29.11-.81.19-1.51.19-1.69.39-2.87.68-3.93.13-.47.32-1.13.58-1.99,1.24-4.12,3.6-6.51,5.37-7.8.51-.37,1.18-.83,2-1.38l.16-.11c3.07-1.98,6.92-2.9,12.1-2.9,3.42,0,8.45.36,12.7,3.43.98.71,1.88,1.54,2.67,2.45l.36.41.38-.39c.54-.56,1.13-1.07,1.75-1.52.51-.37,1.18-.83,2-1.38l.17-.11c3.07-1.98,6.92-2.9,12.1-2.9,3.42,0,8.45.36,12.7,3.43,4.17,3.02,6.56,7.83,6.56,13.19,0,1.05-.09,1.84-.62,5.23l-.06.37.34.16c.85.4,1.69.89,2.48,1.46l.21.15.25-.09c2.8-.98,6.11-1.48,9.82-1.48,4.54,0,8.42.73,11.54,2.17l.2.09.21-.09c3.31-1.44,6.88-2.18,10.6-2.18,10.77,0,20.24,4.34,27.37,12.54.54.63,1.1,1.31,1.74,2.15l.38.5.4-.49c1.24-1.52,2.57-2.94,3.96-4.23,8.42-7.82,18.27-11.79,29.28-11.79,9.02,0,17.29,2.67,24.57,7.94l.38.28.3-.37c.54-.67,1.13-1.29,1.74-1.84l.42-.36c1.02-.83,2.14-1.55,3.32-2.14l.28-.14v-.73c0-2.28.09-3.98.27-5.36.32-2.36,1.17-4.71,2.53-7,3.25-5.82,9.61-8.77,18.88-8.77,3.24,0,6.21.44,8.82,1.3l.44.15.18-.43c3.7-9.04,6.73-17.25,9.28-25.12,1.14-3.52,2.01-7.11,2.59-10.68l.09-.58-101.17-.16Z"/>
        <path class="cls-2" d="m552.85,129.75c3.03,2.17,5.2,2.42,6.57,2.42,1.08,0,2.07-.13,2.94-.38.59-.17.98-.31,1.21-.39l.67-.48c-4.57-1.94-9.11-3.49-13.62-4.6.11.35.25.68.4.99.56,1.13,1.18,1.95,1.83,2.45Z"/>
        <path class="cls-5" d="m594.76,163.24c-1.72,1.78-3.72,3.38-5.95,4.74-1.33.81-2.61,1.59-3.84,2.34-2.17,1.32-5.21,2.54-10.16,4.09-4.94,1.55-9.84,2.33-14.57,2.33s-9.12-.6-13.68-1.77c-4.62-1.19-9.37-3.17-14.1-5.88-4.78-2.74-9.14-6.13-12.96-10.09-1.59-1.64-3.06-3.46-4.42-5.43-1.6,2.16-3.37,4.25-5.34,6.24-9.75,9.88-21.61,15.14-35.29,15.66-4.64,8.32-8.9,16.87-12.98,25.47-.78,1.65-1.61,3.22-2.47,4.72l204.63.31c2.85-.06,5.17-2.32,5.29-5.17l2.4-56.81h-23.05c-.48,0-.87-.41-.84-.89l.05-.9c-1.06.89-2.13,1.77-3.23,2.62-12.98,10.04-26.88,10.89-41.44,4.22-1.12-.51-2.24-1.04-3.36-1.56.2,1.09.3,2.16.3,3.23,0,4.74-1.77,9.19-4.99,12.53Z"/>
        <g>
          <path class="cls-7" d="m339.37,203.99c-2.51-1.61-4.71-3.11-6.71-4.57-13.62-9.94-20.76-21.39-21.82-35.01.76-.81,1.49-1.64,2.18-2.48,1.53,2.51,3.39,4.72,5.55,6.6,6.56,5.71,15.5,8.61,26.57,8.61,2.27,0,4.02-.09,5.5-.28,2.3-.3,4.6-1,7.03-2.13l.31-.15c3.02-1.51,6.87-4.49,9.07-10.27,10.2,9.25,22.21,13.94,35.73,13.94,12.33,0,22.7-2.73,30.86-8.1,4.02,4.58,10.2,6.89,18.42,6.89h19.83c-3.69,6.75-7.47,14.22-11.77,23.27-.61,1.29-1.28,2.58-1.99,3.86l-118.76-.18Z"/>
          <path class="cls-7" d="m312.87,164.42c1.37,1.94,2.95,3.7,4.72,5.24,6.84,5.96,16.12,8.98,27.56,8.98,2.34,0,4.15-.09,5.69-.3,2.46-.32,4.9-1.06,7.51-2.28l.33-.16c2.9-1.45,6.51-4.15,8.94-9.11,10.14,8.6,21.95,12.95,35.17,12.95,12.1,0,22.39-2.58,30.62-7.67,4.3,4.29,10.56,6.46,18.66,6.46h17.31c-3.33,6.19-6.76,13.03-10.6,21.13-.48,1-.99,2.01-1.52,3.01l-117.43-.18c-2.33-1.5-4.39-2.91-6.27-4.28-13.02-9.5-19.95-20.4-21.15-33.26.16-.17.32-.35.47-.52m.37-5.2c-1.23,1.66-2.55,3.2-3.93,4.63.92,14.61,8.53,26.6,22.47,36.78,2.35,1.72,4.74,3.32,7.16,4.86l120.08.18c.86-1.5,1.69-3.07,2.47-4.72,4.08-8.6,8.35-17.15,12.98-25.47-.75.03-1.51.05-2.27.05h-20.13c-8.38,0-14.46-2.5-18.13-7.41-8.07,5.72-18.5,8.62-31.15,8.62-13.91,0-26.16-5.11-36.42-15.15-1.76,6.59-5.63,9.94-9.02,11.64l-.3.14c-2.29,1.07-4.44,1.73-6.59,2.01-1.42.18-3.1.27-5.3.27-10.7,0-19.31-2.77-25.59-8.24-2.6-2.27-4.71-5-6.32-8.18h0Z"/>
        </g>
        <path class="cls-7" d="m1067.57,130h-405.48c-.48,0-.87-.41-.84-.89l6.2-115.11h-7.03c-3.39,0-6.18,2.65-6.36,6.03l-.16,2.92-.86,16-467.06-.71c-6.27,7.73-14.61,13.31-24.91,16.91,1.14,1.52,1.77,2.76,2.75,3.6,22.29,19.08,46.71,24.67,71.31,1.31,7-6.65,12.9-13.81,16.9-21.71l100.28.15c-.57,3.5-1.41,7.04-2.57,10.61-2.74,8.47-5.89,16.83-9.26,25.08,7.81,2.57,10.73,8.27,11.73,11.1l.14.43c.63,2.03.98,4.42,1.09,7.42.07,0,.13.02.2.02,1.25.16,2.5.47,3.76.91,2.32-3.69,5.16-7.14,8.51-10.33,10.58-10.06,23.24-15.16,37.65-15.16,10.54,0,20.56,3.21,29.84,9.52,2.68-4.04,8.03-8.2,18.78-8.2h.07l20.35.11c1.1,0,2.19.04,3.27.11-4.49-2.5-8.82-5.33-12.81-8.5-8.89-7.06-15.09-14.87-19.04-22.98l12.8.02c5.82,9.46,14.74,16.72,25.37,22.68,17.57,9.86,33.14,5.34,48.64-5.92,7.37-5.35,16.46-9.38,25.37-11.35,26.03-5.79,48.24,3.9,68.27,19.8,3.51,2.79,9.52,5.8,4.98,11.38-4.28,5.27-8.21.3-11.56-2.53-25.94-21.86-60.99-27.13-86.82-4.91-9.01,7.75-19.45,11.12-30.31,10.45,2.93,1.9,5.75,4.12,8.44,6.68,2.24,2.13,4.23,4.37,6,6.72,1.3-1.82,2.71-3.51,4.22-5.06,3.83-3.93,8.25-7.25,13.14-9.89,9-4.95,18.31-7.46,27.65-7.46,4.64,0,9.37.71,14.08,2.12,4.57,1.37,8.12,2.82,10.86,4.46l2.81,1.64c1.54.94,2.76,1.73,3.71,2.39l.7.53c4.84,3.91,7.5,9.22,7.5,14.95,0,4.62-1.58,9.14-4.69,13.44-1.98,2.74-8.02,11.11-17.82,11.11-3.93,0-7.92-1.44-12.54-4.52l-.48-.32-.45-.36c-.75-.61-2.38-.96-4.46-.96s-4.29.84-6.73,2.56c-.55.42-1.14,1.23-1.67,2.3-.59,1.18-.88,2.61-.88,4.36,0,1.29.16,2.4.48,3.37,4.51,1.1,9.06,2.66,13.62,4.6l1.1-.79.5-.3c4.68-2.75,8.15-3.93,11.62-3.93,6.79,0,12.81,4,17.88,11.9l.07.11c2.17,3.46,3.48,6.57,4.03,9.58,1.12.52,2.24,1.05,3.36,1.56,14.56,6.67,28.46,5.82,41.44-4.22,1.1-.85,2.18-1.73,3.23-2.62l-.05.9c-.03.48.36.89.84.89h23.05l-2.4,56.81c-.12,2.86-2.44,5.11-5.29,5.17h5.39s2.36-61.98,2.36-61.98h390.4c.24,0,.47-.01.7-.03,4.93-.43,7.98-5.62,6.36-10.29l-1.28-3.68Zm-416.27-58.68c-14.13-10.81-28.26-21.61-42.38-32.43l18.57.03c8.18,6.28,16.36,12.55,24.54,18.83l-.73,13.57Z"/>
        <path d="m839.22,84.6c6.87,0,10.3-6.53,10.3-19.6v-.6c0-13.4-3.4-20.1-10.2-20.1s-10.2,6.72-10.2,20.15,3.37,20.15,10.1,20.15Z"/>
        <path d="m662.1,130h413.51c.24,0,.47-.01.7-.03,4.93-.43,7.98-5.62,6.36-10.29l-18.96-54.68,26.7-53.83c2.37-4.78-.66-10.7-5.98-11.15-.22-.02-.45-.03-.68-.03h-409.49c-3.39,0-6.18,2.65-6.36,6.03l-.43,7.97-6.2,115.11c-.03.48.36.89.84.89Zm280.82-56.6c2.67,0,4.43.33,5.3,1,1.13.87,2.13,2.6,3,5.2.67,2.13,2.5,3.73,5.5,4.8,1.27.4,2.67.6,4.2.6,3.53,0,6.13-.72,7.8-2.15,1.67-1.43,2.5-3.05,2.5-4.85s-.82-3.38-2.45-4.75c-1.63-1.37-3.57-2.05-5.8-2.05s-3.75-.07-4.55-.2c-.8-.13-1.67-.47-2.6-1-1.8-.87-2.7-3.43-2.7-7.7,0-4.67,1.23-7.43,3.7-8.3,1.13-.33,2.87-.5,5.2-.5,5.07,0,7.6-1.3,7.6-3.9,0-1.4-.67-2.73-2-4-1.33-1.27-3.18-1.9-5.55-1.9s-4.25.4-5.65,1.2c-1.4.8-2.27,1.6-2.6,2.4l-.6,1.2c-1.53,3.33-3.73,5-6.6,5-1.67,0-3.5-.6-5.5-1.8-3.33-1.93-5-4.17-5-6.7,0-1.07.77-3.33,2.3-6.8.27-.6,1-1.65,2.2-3.15s2.58-2.82,4.15-3.95c1.57-1.13,3.77-2.17,6.6-3.1,2.83-.93,5.98-1.4,9.45-1.4,8.2,0,14.67,2.33,19.4,7,4.73,4.67,7.1,9.92,7.1,15.75s-2.6,10.05-7.8,12.65v.7c.67.33,1.65,1.05,2.95,2.15,1.3,1.1,2.35,2.18,3.15,3.25,2.2,2.8,3.3,6,3.3,9.6,0,7.13-2.67,13.02-8,17.65-5.33,4.63-12.03,6.95-20.1,6.95s-14.67-2.33-20-7c-2-1.8-3.77-4.17-5.3-7.1-.54-1.07-.9-1.93-1.1-2.6l-.2-1c-.73-2.2-1.1-4-1.1-5.4,0-3.87,3.27-5.8,9.8-5.8Zm-35.2-23.55c-.47-1.1-.98-2-1.55-2.7-.57-.7-1.45-1.35-2.65-1.95-1.2-.6-2.87-.9-5-.9s-3.98.78-5.55,2.35c-1.57,1.57-2.45,3.12-2.65,4.65l-.4,2.3v.6c0,1.47-.05,2.57-.15,3.3-.1.73-.42,1.57-.95,2.5-1,1.6-3.6,2.4-7.8,2.4-4.67,0-7.43-1.27-8.3-3.8-.33-1.07-.5-2.77-.5-5.1,0-6.93,2.48-13.15,7.45-18.65,4.97-5.5,11.47-8.25,19.5-8.25s14.55,2.79,19.55,8.35c5,5.57,7.5,11.92,7.5,19.05,0,3.8-.83,7.4-2.5,10.8-1.67,3.4-3.67,6.13-6,8.2-4.93,4.4-9.33,7.37-13.2,8.9l-2.5,1v.5h18.3c2.73,0,4.68.32,5.85.95,1.17.63,1.95,1.6,2.35,2.9.4,1.3.6,3,.6,5.1s-.22,3.79-.65,5.05c-.43,1.27-1.15,2.13-2.15,2.6-1.47.8-3.53,1.2-6.2,1.2h-39.1c-2.4,0-4.47-.9-6.2-2.7-1.73-1.8-2.6-3.9-2.6-6.3,0-3.6,1.25-6.92,3.75-9.95,2.5-3.03,5.52-5.63,9.05-7.8,3.53-2.17,7.07-4.3,10.6-6.4,3.53-2.1,6.55-4.48,9.05-7.15,2.5-2.67,3.75-5.5,3.75-8.5,0-.6-.23-1.45-.7-2.55Zm-93.95-2.55c1.57-4.73,3.32-8.45,5.25-11.15,1.93-2.7,4.65-4.97,8.15-6.8,3.5-1.83,7.55-2.75,12.15-2.75s8.62.9,12.05,2.7c3.43,1.8,6.13,4.03,8.1,6.7,1.97,2.67,3.55,5.8,4.75,9.4,2,6,3,12.37,3,19.1,0,12.07-2.6,21.63-7.8,28.7-1.93,2.67-4.62,4.87-8.05,6.6-3.43,1.73-7.42,2.6-11.95,2.6s-8.55-.88-12.05-2.65-6.23-3.95-8.2-6.55c-1.97-2.6-3.58-5.7-4.85-9.3-1.93-5.73-2.9-12.23-2.9-19.5,0-6.67.78-12.37,2.35-17.1Zm-27.75,2.55c-.47-1.1-.98-2-1.55-2.7-.57-.7-1.45-1.35-2.65-1.95-1.2-.6-2.87-.9-5-.9s-3.98.78-5.55,2.35c-1.57,1.57-2.45,3.12-2.65,4.65l-.4,2.3v.6c0,1.47-.05,2.57-.15,3.3-.1.73-.42,1.57-.95,2.5-1,1.6-3.6,2.4-7.8,2.4-4.67,0-7.43-1.27-8.3-3.8-.33-1.07-.5-2.77-.5-5.1,0-6.93,2.48-13.15,7.45-18.65,4.97-5.5,11.47-8.25,19.5-8.25s14.55,2.79,19.55,8.35c5,5.57,7.5,11.92,7.5,19.05,0,3.8-.83,7.4-2.5,10.8-1.67,3.4-3.67,6.13-6,8.2-4.93,4.4-9.33,7.37-13.2,8.9l-2.5,1v.5h18.3c2.73,0,4.68.32,5.85.95,1.17.63,1.95,1.6,2.35,2.9.4,1.3.6,3,.6,5.1s-.22,3.79-.65,5.05c-.43,1.27-1.15,2.13-2.15,2.6-1.47.8-3.53,1.2-6.2,1.2h-39.1c-2.4,0-4.47-.9-6.2-2.7-1.73-1.8-2.6-3.9-2.6-6.3,0-3.6,1.25-6.92,3.75-9.95,2.5-3.03,5.52-5.63,9.05-7.8,3.53-2.17,7.07-4.3,10.6-6.4,3.53-2.1,6.55-4.48,9.05-7.15,2.5-2.67,3.75-5.5,3.75-8.5,0-.6-.23-1.45-.7-2.55Z"/>
        <path class="cls-6" d="m773.92,68.05c-3.54,2.1-7.07,4.23-10.6,6.4-3.53,2.17-6.55,4.77-9.05,7.8-2.5,3.03-3.75,6.35-3.75,9.95,0,2.4.87,4.5,2.6,6.3,1.73,1.8,3.8,2.7,6.2,2.7h39.1c2.67,0,4.73-.4,6.2-1.2,1-.47,1.72-1.33,2.15-2.6.43-1.27.65-2.95.65-5.05s-.2-3.8-.6-5.1c-.4-1.3-1.18-2.27-2.35-2.9-1.17-.63-3.12-.95-5.85-.95h-18.3v-.5l2.5-1c3.87-1.53,8.27-4.5,13.2-8.9,2.33-2.07,4.33-4.8,6-8.2,1.67-3.4,2.5-7,2.5-10.8,0-7.13-2.5-13.48-7.5-19.05-5-5.57-11.52-8.35-19.55-8.35s-14.53,2.75-19.5,8.25c-4.97,5.5-7.45,11.72-7.45,18.65,0,2.33.17,4.03.5,5.1.87,2.54,3.63,3.8,8.3,3.8,4.2,0,6.8-.8,7.8-2.4.53-.93.85-1.77.95-2.5.1-.73.15-1.83.15-3.3v-.6l.4-2.3c.2-1.53,1.08-3.08,2.65-4.65,1.57-1.57,3.42-2.35,5.55-2.35s3.8.3,5,.9c1.2.6,2.08,1.25,2.65,1.95.57.7,1.08,1.6,1.55,2.7.47,1.1.7,1.95.7,2.55,0,3-1.25,5.83-3.75,8.5-2.5,2.67-5.52,5.05-9.05,7.15Z"/>
        <path class="cls-6" d="m819.17,93.2c1.97,2.6,4.7,4.78,8.2,6.55s7.52,2.65,12.05,2.65,8.52-.87,11.95-2.6c3.43-1.73,6.12-3.93,8.05-6.6,5.2-7.07,7.8-16.63,7.8-28.7,0-6.73-1-13.1-3-19.1-1.2-3.6-2.78-6.73-4.75-9.4-1.97-2.67-4.67-4.9-8.1-6.7-3.43-1.8-7.45-2.7-12.05-2.7s-8.65.92-12.15,2.75c-3.5,1.83-6.22,4.1-8.15,6.8-1.93,2.7-3.68,6.42-5.25,11.15-1.57,4.73-2.35,10.43-2.35,17.1,0,7.27.97,13.77,2.9,19.5,1.27,3.6,2.88,6.7,4.85,9.3Zm20.15-48.9c6.8,0,10.2,6.7,10.2,20.1v.6c0,13.07-3.43,19.6-10.3,19.6s-10.1-6.71-10.1-20.15,3.4-20.15,10.2-20.15Z"/>
        <path class="cls-6" d="m895.61,68.05c-3.54,2.1-7.07,4.23-10.6,6.4-3.53,2.17-6.55,4.77-9.05,7.8-2.5,3.03-3.75,6.35-3.75,9.95,0,2.4.87,4.5,2.6,6.3,1.73,1.8,3.8,2.7,6.2,2.7h39.1c2.67,0,4.73-.4,6.2-1.2,1-.47,1.72-1.33,2.15-2.6.43-1.27.65-2.95.65-5.05s-.2-3.8-.6-5.1c-.4-1.3-1.18-2.27-2.35-2.9-1.17-.63-3.12-.95-5.85-.95h-18.3v-.5l2.5-1c3.87-1.53,8.27-4.5,13.2-8.9,2.33-2.07,4.33-4.8,6-8.2,1.67-3.4,2.5-7,2.5-10.8,0-7.13-2.5-13.48-7.5-19.05-5-5.57-11.52-8.35-19.55-8.35s-14.53,2.75-19.5,8.25c-4.97,5.5-7.45,11.72-7.45,18.65,0,2.33.17,4.03.5,5.1.87,2.54,3.63,3.8,8.3,3.8,4.2,0,6.8-.8,7.8-2.4.53-.93.85-1.77.95-2.5.1-.73.15-1.83.15-3.3v-.6l.4-2.3c.2-1.53,1.08-3.08,2.65-4.65,1.57-1.57,3.42-2.35,5.55-2.35s3.8.3,5,.9c1.2.6,2.08,1.25,2.65,1.95.57.7,1.08,1.6,1.55,2.7.47,1.1.7,1.95.7,2.55,0,3-1.25,5.83-3.75,8.5-2.5,2.67-5.52,5.05-9.05,7.15Z"/>
        <path class="cls-6" d="m934.41,85.6c.2.67.57,1.54,1.1,2.6,1.53,2.93,3.3,5.3,5.3,7.1,5.33,4.67,12,7,20,7s14.77-2.32,20.1-6.95c5.33-4.63,8-10.52,8-17.65,0-3.6-1.1-6.8-3.3-9.6-.8-1.07-1.85-2.15-3.15-3.25-1.3-1.1-2.28-1.82-2.95-2.15v-.7c5.2-2.6,7.8-6.82,7.8-12.65s-2.37-11.08-7.1-15.75c-4.73-4.67-11.2-7-19.4-7-3.47,0-6.62.47-9.45,1.4-2.83.93-5.03,1.97-6.6,3.1-1.57,1.13-2.95,2.45-4.15,3.95s-1.93,2.55-2.2,3.15c-1.53,3.47-2.3,5.73-2.3,6.8,0,2.53,1.67,4.77,5,6.7,2,1.2,3.83,1.8,5.5,1.8,2.87,0,5.07-1.67,6.6-5l.6-1.2c.33-.8,1.2-1.6,2.6-2.4,1.4-.8,3.28-1.2,5.65-1.2s4.22.63,5.55,1.9c1.33,1.27,2,2.6,2,4,0,2.6-2.53,3.9-7.6,3.9-2.33,0-4.07.17-5.2.5-2.47.87-3.7,3.63-3.7,8.3,0,4.27.9,6.83,2.7,7.7.93.53,1.8.87,2.6,1,.8.13,2.32.2,4.55.2s4.17.68,5.8,2.05c1.63,1.37,2.45,2.95,2.45,4.75s-.83,3.42-2.5,4.85c-1.67,1.43-4.27,2.15-7.8,2.15-1.53,0-2.93-.2-4.2-.6-3-1.07-4.83-2.67-5.5-4.8-.87-2.6-1.87-4.33-3-5.2-.87-.67-2.63-1-5.3-1-6.53,0-9.8,1.93-9.8,5.8,0,1.4.37,3.2,1.1,5.4l.2,1Z"/>
        <path d="m835.03,211.08v-17.98c0-2.57-.4-4.74-1.21-6.52-.81-1.78-2.02-3.13-3.63-4.04-1.61-.92-3.61-1.38-6-1.38-.88,0-1.81.11-2.78.33-.97.22-1.92.57-2.83,1.04-.92.48-1.75,1.04-2.5,1.71-.55.49-1.03,1.08-1.48,1.72-.45-.91-.96-1.68-1.55-2.27-.9-.92-1.93-1.57-3.08-1.95-1.16-.39-2.41-.58-3.77-.58-.81,0-1.65.09-2.53.27-.88.18-1.74.49-2.58.91s-1.61.96-2.31,1.62c-.25.24-.47.51-.7.79l-.24-2.99h-9.57v29.31h10.23v-17.49c0-.59.11-1.12.33-1.59.22-.48.51-.9.88-1.27s.82-.65,1.35-.85c.53-.2,1.11-.3,1.73-.3.81,0,1.49.17,2.04.52.55.35.97.83,1.26,1.46.29.62.44,1.39.44,2.31v17.21h10.23v-17.44c0-.62.11-1.16.33-1.62.22-.46.51-.88.88-1.26.37-.39.82-.68,1.35-.88.53-.2,1.11-.3,1.73-.3.81,0,1.49.17,2.04.5.55.33.97.82,1.26,1.46.29.64.44,1.44.44,2.39v17.16h10.23Z"/>
        <path d="m859.62,209.4c.57-.42,1.07-.91,1.54-1.43v3.11h10.29v-29.31h-10.06v3.23c-.5-.61-1.04-1.18-1.65-1.69-.84-.7-1.83-1.23-2.97-1.6-1.14-.37-2.38-.55-3.74-.55-2.53,0-4.77.65-6.71,1.95-1.94,1.3-3.46,3.09-4.56,5.36-1.1,2.27-1.65,4.91-1.65,7.92s.56,5.55,1.68,7.84c1.12,2.29,2.64,4.09,4.56,5.39,1.92,1.3,4.1,1.95,6.52,1.95,1.36,0,2.59-.19,3.71-.58,1.12-.38,2.14-.92,3.05-1.6Zm-6.85-7.04c-.83-.53-1.46-1.31-1.9-2.34-.44-1.03-.66-2.24-.66-3.63s.22-2.66.66-3.69c.44-1.03,1.07-1.81,1.9-2.34.82-.53,1.82-.8,3-.8s2.18.27,3.03.8c.84.53,1.49,1.31,1.95,2.34.46,1.03.69,2.25.69,3.69s-.23,2.6-.69,3.63c-.46,1.03-1.11,1.81-1.95,2.34-.84.53-1.85.8-3.03.8s-2.17-.27-3-.8Z"/>
        <path d="m899.38,181.29c-.59-.09-1.21-.14-1.87-.14-1.58,0-3.08.38-4.51,1.13-1.43.75-2.65,1.78-3.66,3.08-.14.18-.26.37-.4.56l-.24-4.16h-9.57v29.31h10.29v-14.02c0-.81.11-1.51.33-2.12s.53-1.13.94-1.57c.4-.44.9-.78,1.48-1.02.59-.24,1.25-.36,1.98-.36.84,0,1.63.1,2.37.3.73.2,1.3.43,1.7.69l2.81-11.33c-.51-.15-1.06-.27-1.65-.36Z"/>
        <path d="m915.06,190.73c.92-.55,1.98-.82,3.19-.82.92,0,1.75.12,2.5.36.75.24,1.44.57,2.06.99.62.42,1.14.89,1.54,1.4l5.55-6.6c-1.32-1.58-3.09-2.79-5.31-3.63-2.22-.84-4.65-1.27-7.29-1.27-2.9,0-5.49.66-7.78,1.98-2.29,1.32-4.1,3.13-5.42,5.42-1.32,2.29-1.98,4.9-1.98,7.84s.66,5.55,1.98,7.84c1.32,2.29,3.12,4.1,5.42,5.42,2.29,1.32,4.89,1.98,7.78,1.98,2.6,0,5.01-.42,7.23-1.26,2.22-.84,4-2.04,5.36-3.58l-5.55-6.65c-.44.55-.96,1.03-1.57,1.43-.6.4-1.28.72-2.03.94-.75.22-1.59.33-2.5.33-1.21,0-2.28-.29-3.22-.88-.93-.59-1.64-1.36-2.12-2.31-.48-.95-.71-2.05-.71-3.3s.25-2.36.74-3.33c.5-.97,1.2-1.73,2.12-2.28Z"/>
        <path d="m958.53,182.5c-1.52-.9-3.38-1.35-5.58-1.35-1.61,0-3.15.31-4.62.94-1.47.62-2.73,1.48-3.79,2.56-.02.02-.04.04-.05.06v-14.34h-10.01v40.7h10.29v-17.49c0-.59.1-1.12.3-1.59.2-.48.5-.91.91-1.29.4-.39.87-.67,1.4-.85.53-.18,1.11-.27,1.73-.27.81-.04,1.5.11,2.09.44.59.33,1.03.82,1.32,1.46.29.64.44,1.44.44,2.39v17.21h10.23v-18.04c0-2.57-.39-4.74-1.18-6.52-.79-1.78-1.94-3.12-3.47-4.01Z"/>
        <path d="m1015.32,201.67h-13.36l3.84-4.18c1.14-1.25,2.13-2.43,2.97-3.55.84-1.12,1.56-2.18,2.14-3.19.59-1.01,1.06-1.95,1.43-2.83.37-.88.63-1.73.8-2.56.17-.83.25-1.6.25-2.34,0-2.27-.57-4.26-1.7-5.97-1.14-1.71-2.66-3.03-4.57-3.99-1.91-.95-4.01-1.45-6.33-1.49-2.16-.04-4.23.42-6.19,1.38-1.96.95-3.69,2.26-5.2,3.93-1.5,1.67-2.66,3.57-3.46,5.69l7.97,4.18c.62-1.21,1.24-2.19,1.84-2.94.6-.75,1.24-1.3,1.9-1.65.66-.35,1.36-.52,2.09-.52.84,0,1.53.14,2.06.41.53.28.93.62,1.18,1.05.26.42.38.89.38,1.4,0,.66-.22,1.44-.66,2.34-.44.9-1.02,1.81-1.73,2.75s-1.45,1.85-2.2,2.75c-.75.9-1.46,1.7-2.12,2.39l-11,11.83,1.87,4.51h27.78v-9.4Z"/>
        <path d="m1044.09,174.36c-2.6-1.56-5.76-2.34-9.46-2.34s-6.85.78-9.43,2.34c-2.58,1.56-4.55,3.81-5.88,6.77-1.34,2.95-2.01,6.52-2.01,10.7s.67,7.75,2.01,10.7c1.34,2.95,3.3,5.21,5.88,6.77,2.58,1.56,5.73,2.34,9.43,2.34s6.86-.78,9.46-2.34c2.6-1.56,4.57-3.81,5.91-6.77,1.34-2.95,2.01-6.52,2.01-10.7s-.67-7.75-2.01-10.7c-1.34-2.95-3.31-5.21-5.91-6.77Zm-4.26,25.41c-1.23,1.85-2.96,2.78-5.2,2.78s-3.97-.93-5.2-2.78c-1.23-1.85-1.84-4.5-1.84-7.95s.61-6.36,1.84-8.31c1.23-1.94,2.96-2.92,5.2-2.92s3.97.97,5.2,2.92c1.23,1.94,1.84,4.71,1.84,8.31s-.62,6.1-1.84,7.95Z"/>
        <rect x="1075.44" y="190.67" width="20.41" height="9.18"/>
        <path d="m1137.86,197.49c1.14-1.25,2.13-2.43,2.97-3.55.84-1.12,1.56-2.18,2.14-3.19.59-1.01,1.06-1.95,1.43-2.83.37-.88.63-1.73.8-2.56.17-.83.25-1.6.25-2.34,0-2.27-.57-4.26-1.7-5.97-1.14-1.71-2.66-3.03-4.57-3.99-1.91-.95-4.01-1.45-6.33-1.49-2.16-.04-4.23.42-6.19,1.38-1.96.95-3.69,2.26-5.2,3.93-1.5,1.67-2.66,3.57-3.46,5.69l7.97,4.18c.62-1.21,1.24-2.19,1.84-2.94.6-.75,1.24-1.3,1.9-1.65.66-.35,1.36-.52,2.09-.52.84,0,1.53.14,2.06.41.53.28.93.62,1.18,1.05.26.42.38.89.38,1.4,0,.66-.22,1.44-.66,2.34-.44.9-1.02,1.81-1.73,2.75s-1.45,1.85-2.2,2.75c-.75.9-1.46,1.7-2.12,2.39l-11,11.83,1.87,4.51h27.78v-9.4h-13.36l3.84-4.18Z"/>
        <path d="m1175.86,195.57v-23.43h-8.91l-20.02,23.92,4.4,8.25h14.02v6.77h10.5v-6.77h6.05v-8.74h-6.05Zm-10.5,0h-6.15l6.15-7.5v7.5Z"/>
        <rect id="Calendar_White_BG" data-name="Calendar White BG" class="cls-1" x="712.71" y="183" width="46" height="36"/>
        <path class="cls-7" d="m754.73,171.74c-.78,0-1.56,0-2.39,0,0-1.39-.05-2.72.01-4.05.06-1.45-.45-2.48-1.85-2.98h-3.41c-.25.13-.52.25-.76.41-.68.47-1.03,1.12-1.03,1.95,0,1.34,0,2.67,0,4.01,0,.2,0,.39,0,.63h-19.06v-.52c0-1.15-.06-2.31.01-3.46.09-1.46-.42-2.48-1.8-3.02h-3.41c-1.4.51-1.92,1.53-1.85,2.98.06,1.33.01,2.66.01,4.05-.74,0-1.43,0-2.12,0-3.69,0-6.47,2.32-7.16,5.96-.01.07-.06.13-.09.19v36.92c.32.89.53,1.83.99,2.64,1.07,1.91,2.75,3.03,4.92,3.41.09.02.17.06.25.1h39.55c.33-.08.67-.15,1-.26,2.77-.88,4.47-2.74,5.05-5.6.02-.1.07-.2.1-.3v-36.92c-.08-.33-.16-.67-.25-1-.84-3.01-3.59-5.12-6.72-5.15Zm-.4,44.52c-5.67,0-11.35-.02-17.02-.02-6.68,0-13.36.01-20.04.02-.34,0-.7,0-1.03-.09-1.03-.28-1.68-1.16-1.68-2.29,0-8.4,0-16.8,0-25.21,0-.12.02-.25.04-.4h42.4c.01.19.03.39.03.58,0,8.26,0,16.51,0,24.77,0,1.76-.9,2.65-2.68,2.65Z"/>
        <path class="cls-7" d="m746.04,193.47c-.91-.18-1.64.16-2.27.8-3.63,3.64-7.27,7.27-10.9,10.91-.14.14-.24.32-.4.55-.25-.33-.39-.5-.52-.68-1.43-1.95-2.86-3.89-4.28-5.84-.47-.64-1.07-1.06-1.87-1.09-.96-.04-1.72.37-2.17,1.22-.48.88-.38,1.76.21,2.58,2.04,2.79,4.09,5.58,6.13,8.36,1.2,1.64,2.67,1.76,4.1.33,4.31-4.31,8.62-8.62,12.93-12.93.18-.18.36-.36.51-.57.98-1.39.2-3.31-1.47-3.64Z"/>
        <path d="m54.2,307.99c-.43-.69-.95-1.3-1.58-1.84-.68-.57-1.47-1.02-2.38-1.34-.91-.32-1.91-.48-3-.48-1.84,0-3.5.47-4.98,1.4-1.48.93-2.65,2.22-3.52,3.86-.87,1.64-1.3,3.51-1.3,5.62s.43,3.95,1.28,5.6c.85,1.65,1.99,2.96,3.42,3.92,1.43.96,3.01,1.44,4.74,1.44,1.01,0,1.98-.16,2.9-.48s1.76-.75,2.52-1.28c.76-.53,1.39-1.14,1.88-1.82,0-.01.01-.02.02-.03v3.21h4.16v-21h-4.16v3.22Zm-.66,10.92c-.55,1.08-1.3,1.93-2.26,2.54s-2.07.92-3.32.92-2.31-.31-3.26-.92c-.95-.61-1.69-1.46-2.24-2.54-.55-1.08-.82-2.31-.82-3.7s.27-2.57.82-3.64c.55-1.07,1.29-1.91,2.24-2.52.95-.61,2.03-.92,3.26-.92s2.36.31,3.32.92,1.71,1.45,2.26,2.52c.55,1.07.82,2.28.82,3.64s-.27,2.62-.82,3.7Z"/>
        <path d="m91.4,307.65c-.27-.35-.58-.69-.96-1-.51-.43-1.08-.82-1.72-1.18-.64-.36-1.33-.64-2.08-.84-.75-.2-1.52-.3-2.32-.3-1.95,0-3.7.47-5.26,1.42s-2.79,2.24-3.68,3.88c-.89,1.64-1.34,3.51-1.34,5.62s.45,3.98,1.36,5.62c.91,1.64,2.14,2.93,3.7,3.88s3.34,1.42,5.34,1.42c1.15,0,2.27-.24,3.36-.72,1.09-.48,2.01-1.1,2.74-1.86.36-.37.64-.75.86-1.14v2.52c0,1.39-.25,2.55-.76,3.48-.51.93-1.25,1.64-2.24,2.12-.99.48-2.21.72-3.68.72-.77,0-1.56-.09-2.36-.26-.8-.17-1.56-.41-2.28-.72-.72-.31-1.35-.66-1.88-1.06l-1.52,3.2c.91.75,2.1,1.35,3.58,1.82,1.48.47,2.97.7,4.46.7,1.68,0,3.19-.23,4.52-.7,1.33-.47,2.47-1.15,3.4-2.04.93-.89,1.65-1.99,2.14-3.28.49-1.29.74-2.78.74-4.46v-19.72h-4.12v2.88Zm-.68,11.28c-.56,1.07-1.35,1.91-2.36,2.52-1.01.61-2.17.92-3.48.92s-2.42-.31-3.42-.92-1.79-1.46-2.36-2.54c-.57-1.08-.86-2.3-.86-3.66s.29-2.58.86-3.66c.57-1.08,1.36-1.93,2.36-2.56s2.14-.94,3.42-.94,2.46.31,3.46.92,1.79,1.46,2.36,2.54c.57,1.08.86,2.31.86,3.7s-.28,2.61-.84,3.68Z"/>
        <path d="m116.68,307.99c-.43-.69-.95-1.3-1.58-1.84-.68-.57-1.47-1.02-2.38-1.34-.91-.32-1.91-.48-3-.48-1.84,0-3.5.47-4.98,1.4-1.48.93-2.65,2.22-3.52,3.86-.87,1.64-1.3,3.51-1.3,5.62s.43,3.95,1.28,5.6c.85,1.65,1.99,2.96,3.42,3.92,1.43.96,3.01,1.44,4.74,1.44,1.01,0,1.98-.16,2.9-.48s1.76-.75,2.52-1.28c.76-.53,1.39-1.14,1.88-1.82,0-.01.01-.02.02-.03v3.21h4.16v-21h-4.16v3.22Zm-.66,10.92c-.55,1.08-1.3,1.93-2.26,2.54s-2.07.92-3.32.92-2.31-.31-3.26-.92c-.95-.61-1.69-1.46-2.24-2.54-.55-1.08-.82-2.31-.82-3.7s.27-2.57.82-3.64c.55-1.07,1.29-1.91,2.24-2.52.95-.61,2.03-.92,3.26-.92s2.36.31,3.32.92,1.71,1.45,2.26,2.52c.55,1.07.82,2.28.82,3.64s-.27,2.62-.82,3.7Z"/>
        <path d="m154.82,305.37c-1.03-.64-2.33-.96-3.9-.96-.72,0-1.45.12-2.2.36-.75.24-1.45.57-2.12,1-.67.43-1.26.91-1.78,1.46-.48.5-.85,1.04-1.14,1.6-.26-.77-.59-1.45-1-2.02-.59-.8-1.33-1.4-2.24-1.8-.91-.4-1.96-.6-3.16-.6-.83,0-1.63.15-2.42.44-.79.29-1.52.69-2.2,1.18-.68.49-1.25,1.06-1.72,1.7-.1.14-.17.28-.26.42v-3.38h-4.16v21h4.16v-12.64c0-.69.13-1.34.4-1.94.27-.6.64-1.12,1.12-1.56s1.04-.79,1.68-1.04c.64-.25,1.33-.38,2.08-.38.88,0,1.63.2,2.24.6.61.4,1.08.98,1.4,1.74.32.76.48,1.69.48,2.78v12.44h4.16v-12.56c0-.72.13-1.38.4-1.98.27-.6.64-1.12,1.12-1.58.48-.45,1.05-.81,1.7-1.06.65-.25,1.35-.38,2.1-.38.96,0,1.75.19,2.36.56.61.37,1.07.94,1.38,1.7.31.76.46,1.74.46,2.94v12.36h4.16v-12.6c0-1.95-.26-3.57-.78-4.88s-1.29-2.28-2.32-2.92Z"/>
        <path d="m179.74,307.21c-.87-.91-1.89-1.62-3.06-2.14-1.17-.52-2.44-.78-3.8-.78-1.55,0-2.98.27-4.3.82-1.32.55-2.45,1.32-3.4,2.32-.95,1-1.69,2.18-2.22,3.54-.53,1.36-.8,2.87-.8,4.52,0,2.08.47,3.92,1.42,5.52.95,1.6,2.25,2.86,3.92,3.78,1.67.92,3.58,1.38,5.74,1.38.99,0,1.99-.14,3.02-.42,1.03-.28,2-.66,2.92-1.14.92-.48,1.7-1.04,2.34-1.68l-2.08-2.92c-1.04.91-2.01,1.53-2.9,1.88-.89.35-1.86.52-2.9.52-1.47,0-2.76-.29-3.88-.88-1.12-.59-1.99-1.42-2.6-2.5-.46-.82-.75-1.74-.86-2.78h16.06l.04-1.76c.03-1.47-.19-2.82-.66-4.06-.47-1.24-1.13-2.31-2-3.22Zm-1.54,5.76h-11.74c.13-.61.3-1.16.54-1.66.51-1.05,1.25-1.85,2.24-2.4.99-.55,2.2-.82,3.64-.82.91,0,1.75.2,2.52.6.77.4,1.41.95,1.92,1.64.51.69.8,1.48.88,2.36v.28Z"/>
        <path d="m213.64,307.37c-.36-.41-.78-.81-1.28-1.18-.77-.57-1.65-1.03-2.62-1.36-.97-.33-1.98-.5-3.02-.5-1.89,0-3.59.47-5.08,1.42-1.49.95-2.67,2.24-3.54,3.88-.87,1.64-1.3,3.51-1.3,5.62s.44,3.98,1.32,5.62,2.07,2.93,3.58,3.88c1.51.95,3.22,1.42,5.14,1.42.96,0,1.9-.16,2.82-.48s1.73-.75,2.44-1.28c.63-.48,1.13-1,1.54-1.55v2.91h4.12v-29.6h-4.12v11.2Zm-.66,11.66c-.55,1.11-1.3,1.98-2.26,2.62-.96.64-2.07.96-3.32.96s-2.36-.32-3.32-.96c-.96-.64-1.71-1.51-2.26-2.62-.55-1.11-.82-2.37-.82-3.78s.27-2.67.82-3.78c.55-1.11,1.3-1.98,2.26-2.62.96-.64,2.07-.96,3.32-.96s2.36.32,3.32.96c.96.64,1.71,1.51,2.26,2.62.55,1.11.82,2.37.82,3.78s-.27,2.67-.82,3.78Z"/>
        <path d="m239.74,307.21c-.87-.91-1.89-1.62-3.06-2.14-1.17-.52-2.44-.78-3.8-.78-1.55,0-2.98.27-4.3.82s-2.45,1.32-3.4,2.32c-.95,1-1.69,2.18-2.22,3.54-.53,1.36-.8,2.87-.8,4.52,0,2.08.47,3.92,1.42,5.52.95,1.6,2.25,2.86,3.92,3.78,1.67.92,3.58,1.38,5.74,1.38.99,0,1.99-.14,3.02-.42,1.03-.28,2-.66,2.92-1.14.92-.48,1.7-1.04,2.34-1.68l-2.08-2.92c-1.04.91-2.01,1.53-2.9,1.88-.89.35-1.86.52-2.9.52-1.47,0-2.76-.29-3.88-.88-1.12-.59-1.99-1.42-2.6-2.5-.46-.82-.75-1.74-.86-2.78h16.06l.04-1.76c.03-1.47-.19-2.82-.66-4.06-.47-1.24-1.13-2.31-2-3.22Zm-1.54,5.76h-11.74c.13-.61.3-1.16.54-1.66.51-1.05,1.25-1.85,2.24-2.4.99-.55,2.2-.82,3.64-.82.91,0,1.75.2,2.52.6.77.4,1.41.95,1.92,1.64.51.69.8,1.48.88,2.36v.28Z"/>
        <polygon points="255.02 319.76 248.92 304.77 244.48 304.77 253.36 325.77 256.32 325.77 265.64 304.77 261.4 304.77 255.02 319.76"/>
        <path d="m285.1,307.21c-.87-.91-1.89-1.62-3.06-2.14-1.17-.52-2.44-.78-3.8-.78-1.55,0-2.98.27-4.3.82s-2.45,1.32-3.4,2.32c-.95,1-1.69,2.18-2.22,3.54-.53,1.36-.8,2.87-.8,4.52,0,2.08.47,3.92,1.42,5.52.95,1.6,2.25,2.86,3.92,3.78,1.67.92,3.58,1.38,5.74,1.38.99,0,1.99-.14,3.02-.42,1.03-.28,2-.66,2.92-1.14.92-.48,1.7-1.04,2.34-1.68l-2.08-2.92c-1.04.91-2.01,1.53-2.9,1.88-.89.35-1.86.52-2.9.52-1.47,0-2.76-.29-3.88-.88-1.12-.59-1.99-1.42-2.6-2.5-.46-.82-.75-1.74-.86-2.78h16.06l.04-1.76c.03-1.47-.19-2.82-.66-4.06-.47-1.24-1.13-2.31-2-3.22Zm-1.54,5.76h-11.74c.13-.61.3-1.16.54-1.66.51-1.05,1.25-1.85,2.24-2.4.99-.55,2.2-.82,3.64-.82.91,0,1.75.2,2.52.6.77.4,1.41.95,1.92,1.64.51.69.8,1.48.88,2.36v.28Z"/>
        <rect x="292.32" y="296.17" width="4.12" height="29.6"/>
        <path d="m316.78,305.75c-1.61-.95-3.43-1.42-5.46-1.42s-3.89.47-5.5,1.42c-1.61.95-2.89,2.24-3.82,3.88-.93,1.64-1.4,3.51-1.4,5.62s.47,3.98,1.4,5.62c.93,1.64,2.21,2.93,3.82,3.88,1.61.95,3.45,1.42,5.5,1.42s3.85-.47,5.46-1.42c1.61-.95,2.89-2.24,3.82-3.88.93-1.64,1.4-3.51,1.4-5.62s-.47-3.98-1.4-5.62c-.93-1.64-2.21-2.93-3.82-3.88Zm.22,13.16c-.56,1.08-1.33,1.93-2.32,2.56-.99.63-2.11.94-3.36.94s-2.38-.31-3.38-.94c-1-.63-1.78-1.48-2.34-2.56s-.83-2.3-.8-3.66c-.03-1.36.24-2.58.8-3.66.56-1.08,1.34-1.93,2.34-2.56s2.13-.94,3.38-.94,2.37.31,3.36.92c.99.61,1.76,1.46,2.32,2.54s.83,2.31.8,3.7c.03,1.36-.24,2.58-.8,3.66Z"/>
        <path d="m342.47,305.81c-1.47-.93-3.15-1.4-5.04-1.4-1.15,0-2.26.23-3.34.7s-1.99,1.07-2.74,1.8c-.29.28-.52.57-.72.87v-3.01h-4.16v29.8h4.16v-11.55c.14.16.28.32.44.47.8.77,1.77,1.41,2.92,1.9,1.15.49,2.33.74,3.56.74,1.84,0,3.49-.47,4.96-1.42,1.47-.95,2.62-2.24,3.46-3.88.84-1.64,1.26-3.5,1.26-5.58s-.43-3.97-1.28-5.6c-.85-1.62-2.01-2.91-3.48-3.84Zm-.04,13.08c-.56,1.07-1.32,1.91-2.28,2.52-.96.61-2.05.92-3.28.92s-2.36-.31-3.32-.92c-.96-.61-1.72-1.45-2.28-2.52-.56-1.07-.84-2.28-.84-3.64s.28-2.57.84-3.64,1.32-1.9,2.28-2.5,2.07-.9,3.32-.9,2.36.31,3.32.92,1.71,1.45,2.26,2.5c.55,1.05.82,2.26.82,3.62s-.28,2.57-.84,3.64Z"/>
        <path d="m379.93,305.37c-1.03-.64-2.33-.96-3.9-.96-.72,0-1.45.12-2.2.36-.75.24-1.45.57-2.12,1-.67.43-1.26.91-1.78,1.46-.48.5-.85,1.04-1.14,1.6-.26-.77-.59-1.45-1-2.02-.59-.8-1.33-1.4-2.24-1.8-.91-.4-1.96-.6-3.16-.6-.83,0-1.63.15-2.42.44-.79.29-1.52.69-2.2,1.18-.68.49-1.25,1.06-1.72,1.7-.1.14-.17.28-.26.42v-3.38h-4.16v21h4.16v-12.64c0-.69.13-1.34.4-1.94.27-.6.64-1.12,1.12-1.56s1.04-.79,1.68-1.04c.64-.25,1.33-.38,2.08-.38.88,0,1.63.2,2.24.6.61.4,1.08.98,1.4,1.74.32.76.48,1.69.48,2.78v12.44h4.16v-12.56c0-.72.13-1.38.4-1.98.27-.6.64-1.12,1.12-1.58.48-.45,1.05-.81,1.7-1.06.65-.25,1.35-.38,2.1-.38.96,0,1.75.19,2.36.56.61.37,1.07.94,1.38,1.7.31.76.46,1.74.46,2.94v12.36h4.16v-12.6c0-1.95-.26-3.57-.78-4.88s-1.29-2.28-2.32-2.92Z"/>
        <path d="m404.85,307.21c-.87-.91-1.89-1.62-3.06-2.14-1.17-.52-2.44-.78-3.8-.78-1.55,0-2.98.27-4.3.82s-2.45,1.32-3.4,2.32c-.95,1-1.69,2.18-2.22,3.54-.53,1.36-.8,2.87-.8,4.52,0,2.08.47,3.92,1.42,5.52.95,1.6,2.25,2.86,3.92,3.78,1.67.92,3.58,1.38,5.74,1.38.99,0,1.99-.14,3.02-.42,1.03-.28,2-.66,2.92-1.14.92-.48,1.7-1.04,2.34-1.68l-2.08-2.92c-1.04.91-2.01,1.53-2.9,1.88-.89.35-1.86.52-2.9.52-1.47,0-2.76-.29-3.88-.88-1.12-.59-1.99-1.42-2.6-2.5-.46-.82-.75-1.74-.86-2.78h16.06l.04-1.76c.03-1.47-.19-2.82-.66-4.06-.47-1.24-1.13-2.31-2-3.22Zm-1.54,5.76h-11.74c.13-.61.3-1.16.54-1.66.51-1.05,1.25-1.85,2.24-2.4.99-.55,2.2-.82,3.64-.82.91,0,1.75.2,2.52.6.77.4,1.41.95,1.92,1.64.51.69.8,1.48.88,2.36v.28Z"/>
        <path d="m426.99,305.27c-1.07-.63-2.4-.94-4-.94-1.12,0-2.21.25-3.28.74-1.07.49-1.99,1.13-2.76,1.92-.33.33-.6.69-.84,1.05v-3.27h-4.12v21h4.12v-12.72c0-.69.14-1.34.42-1.94.28-.6.67-1.13,1.16-1.58.49-.45,1.07-.81,1.74-1.06.67-.25,1.4-.38,2.2-.38.99-.05,1.81.1,2.48.46.67.36,1.16.93,1.48,1.72s.48,1.78.48,2.98v12.52h4.12v-12.8c0-1.95-.27-3.56-.8-4.84-.53-1.28-1.33-2.23-2.4-2.86Z"/>
        <polygon points="442.51 299.41 438.39 299.41 438.39 304.77 434.03 304.77 434.03 308.77 438.39 308.77 438.39 325.77 442.51 325.77 442.51 308.77 447.39 308.77 447.39 304.77 442.51 304.77 442.51 299.41"/>
        <path d="m477.35,305.27c-1.07-.63-2.4-.94-4-.94-1.12,0-2.21.25-3.28.74-1.07.49-1.99,1.13-2.76,1.92-.33.33-.6.69-.84,1.05v-3.27h-4.12v21h4.12v-12.72c0-.69.14-1.34.42-1.94.28-.6.67-1.13,1.16-1.58.49-.45,1.07-.81,1.74-1.06.67-.25,1.4-.38,2.2-.38.99-.05,1.81.1,2.48.46.67.36,1.16.93,1.48,1.72s.48,1.78.48,2.98v12.52h4.12v-12.8c0-1.95-.27-3.56-.8-4.84-.53-1.28-1.33-2.23-2.4-2.86Z"/>
        <path d="m501.05,305.75c-1.61-.95-3.43-1.42-5.46-1.42s-3.89.47-5.5,1.42c-1.61.95-2.89,2.24-3.82,3.88-.93,1.64-1.4,3.51-1.4,5.62s.47,3.98,1.4,5.62c.93,1.64,2.21,2.93,3.82,3.88,1.61.95,3.45,1.42,5.5,1.42s3.85-.47,5.46-1.42c1.61-.95,2.89-2.24,3.82-3.88.93-1.64,1.4-3.51,1.4-5.62s-.47-3.98-1.4-5.62c-.93-1.64-2.21-2.93-3.82-3.88Zm.22,13.16c-.56,1.08-1.33,1.93-2.32,2.56-.99.63-2.11.94-3.36.94s-2.38-.31-3.38-.94c-1-.63-1.78-1.48-2.34-2.56s-.83-2.3-.8-3.66c-.03-1.36.24-2.58.8-3.66.56-1.08,1.34-1.93,2.34-2.56s2.13-.94,3.38-.94,2.37.31,3.36.92c.99.61,1.76,1.46,2.32,2.54s.83,2.31.8,3.7c.03,1.36-.24,2.58-.8,3.66Z"/>
        <path d="m525.75,305.27c-1.07-.63-2.4-.94-4-.94-1.12,0-2.21.25-3.28.74-1.07.49-1.99,1.13-2.76,1.92-.33.33-.6.69-.84,1.05v-3.27h-4.12v21h4.12v-12.72c0-.69.14-1.34.42-1.94.28-.6.67-1.13,1.16-1.58.49-.45,1.07-.81,1.74-1.06.67-.25,1.4-.38,2.2-.38.99-.05,1.81.1,2.48.46.67.36,1.16.93,1.48,1.72s.48,1.78.48,2.98v12.52h4.12v-12.8c0-1.95-.27-3.56-.8-4.84-.53-1.28-1.33-2.23-2.4-2.86Z"/>
        <rect x="533.79" y="312.29" width="11.52" height="4.08"/>
        <path d="m556.21,308.99c1-.63,2.14-.94,3.42-.94.69,0,1.41.15,2.16.44s1.45.69,2.12,1.2c.67.51,1.21,1.07,1.64,1.68l2.28-2.8c-.8-1.31-1.97-2.34-3.5-3.1s-3.23-1.14-5.1-1.14-3.69.48-5.22,1.44c-1.53.96-2.75,2.27-3.64,3.92s-1.34,3.51-1.34,5.56.45,3.91,1.34,5.56c.89,1.65,2.11,2.96,3.64,3.92,1.53.96,3.27,1.44,5.22,1.44,1.71,0,3.35-.39,4.94-1.16,1.59-.77,2.81-1.76,3.66-2.96l-2.28-2.8c-.56.69-1.16,1.28-1.8,1.76-.64.48-1.3.84-1.98,1.08-.68.24-1.38.36-2.1.36-1.23,0-2.35-.32-3.36-.96-1.01-.64-1.83-1.5-2.44-2.58-.61-1.08-.92-2.3-.92-3.66s.29-2.59.88-3.68c.59-1.09,1.38-1.95,2.38-2.58Z"/>
        <path d="m586.61,305.75c-1.61-.95-3.43-1.42-5.46-1.42s-3.89.47-5.5,1.42c-1.61.95-2.89,2.24-3.82,3.88-.93,1.64-1.4,3.51-1.4,5.62s.47,3.98,1.4,5.62,2.21,2.93,3.82,3.88c1.61.95,3.45,1.42,5.5,1.42s3.85-.47,5.46-1.42,2.89-2.24,3.82-3.88,1.4-3.51,1.4-5.62-.47-3.98-1.4-5.62c-.93-1.64-2.21-2.93-3.82-3.88Zm.22,13.16c-.56,1.08-1.33,1.93-2.32,2.56-.99.63-2.11.94-3.36.94s-2.38-.31-3.38-.94c-1-.63-1.78-1.48-2.34-2.56-.56-1.08-.83-2.3-.8-3.66-.03-1.36.24-2.58.8-3.66.56-1.08,1.34-1.93,2.34-2.56s2.13-.94,3.38-.94,2.37.31,3.36.92,1.76,1.46,2.32,2.54c.56,1.08.83,2.31.8,3.7.03,1.36-.24,2.58-.8,3.66Z"/>
        <path d="m611.31,305.27c-1.07-.63-2.4-.94-4-.94-1.12,0-2.21.25-3.28.74-1.07.49-1.99,1.13-2.76,1.92-.33.33-.6.69-.84,1.05v-3.27h-4.12v21h4.12v-12.72c0-.69.14-1.34.42-1.94.28-.6.67-1.13,1.16-1.58.49-.45,1.07-.81,1.74-1.06.67-.25,1.4-.38,2.2-.38.99-.05,1.81.1,2.48.46.67.36,1.16.93,1.48,1.72.32.79.48,1.78.48,2.98v12.52h4.12v-12.8c0-1.95-.27-3.56-.8-4.84-.53-1.28-1.33-2.23-2.4-2.86Z"/>
        <path d="m626.83,301.11c.19-.36.47-.63.86-.8.39-.17.86-.26,1.42-.26.37,0,.77.1,1.18.3.41.2.79.46,1.14.78l1.4-3.16c-.45-.53-1.05-.96-1.8-1.28-.75-.32-1.55-.48-2.4-.48-1.23,0-2.31.27-3.24.8s-1.67,1.27-2.2,2.2c-.53.93-.8,2-.8,3.2v2.72h-3.36v3.8h3.36v16.84h4.16v-16.84h4.96v-3.8h-4.96v-2.72c0-.51.09-.94.28-1.3Z"/>
        <path d="m651.33,307.21c-.87-.91-1.89-1.62-3.06-2.14-1.17-.52-2.44-.78-3.8-.78-1.55,0-2.98.27-4.3.82s-2.45,1.32-3.4,2.32c-.95,1-1.69,2.18-2.22,3.54-.53,1.36-.8,2.87-.8,4.52,0,2.08.47,3.92,1.42,5.52.95,1.6,2.25,2.86,3.92,3.78s3.58,1.38,5.74,1.38c.99,0,1.99-.14,3.02-.42,1.03-.28,2-.66,2.92-1.14.92-.48,1.7-1.04,2.34-1.68l-2.08-2.92c-1.04.91-2.01,1.53-2.9,1.88-.89.35-1.86.52-2.9.52-1.47,0-2.76-.29-3.88-.88-1.12-.59-1.99-1.42-2.6-2.5-.46-.82-.75-1.74-.86-2.78h16.06l.04-1.76c.03-1.47-.19-2.82-.66-4.06-.47-1.24-1.13-2.31-2-3.22Zm-1.54,5.76h-11.74c.13-.61.3-1.16.54-1.66.51-1.05,1.25-1.85,2.24-2.4.99-.55,2.2-.82,3.64-.82.91,0,1.75.2,2.52.6.77.4,1.41.95,1.92,1.64.51.69.8,1.48.88,2.36v.28Z"/>
        <path d="m669.03,304.33c-.99,0-1.94.24-2.86.72s-1.73,1.13-2.44,1.96c-.46.53-.82,1.11-1.1,1.72v-3.96h-4.16v21h4.16v-11.6c0-.77.15-1.49.44-2.14s.69-1.23,1.18-1.72c.49-.49,1.07-.88,1.72-1.16.65-.28,1.34-.42,2.06-.42.37,0,.75.05,1.14.14.39.09.74.21,1.06.34l1.08-4.48c-.24-.11-.57-.2-.98-.28-.41-.08-.85-.12-1.3-.12Z"/>
        <path d="m690.01,307.21c-.87-.91-1.89-1.62-3.06-2.14-1.17-.52-2.44-.78-3.8-.78-1.55,0-2.98.27-4.3.82-1.32.55-2.45,1.32-3.4,2.32-.95,1-1.69,2.18-2.22,3.54-.53,1.36-.8,2.87-.8,4.52,0,2.08.47,3.92,1.42,5.52.95,1.6,2.25,2.86,3.92,3.78,1.67.92,3.58,1.38,5.74,1.38.99,0,1.99-.14,3.02-.42,1.03-.28,2-.66,2.92-1.14.92-.48,1.7-1.04,2.34-1.68l-2.08-2.92c-1.04.91-2.01,1.53-2.9,1.88-.89.35-1.86.52-2.9.52-1.47,0-2.76-.29-3.88-.88-1.12-.59-1.99-1.42-2.6-2.5-.46-.82-.75-1.74-.86-2.78h16.06l.04-1.76c.03-1.47-.19-2.82-.66-4.06-.47-1.24-1.13-2.31-2-3.22Zm-1.54,5.76h-11.74c.13-.61.3-1.16.54-1.66.51-1.05,1.25-1.85,2.24-2.4.99-.55,2.2-.82,3.64-.82.91,0,1.75.2,2.52.6.77.4,1.41.95,1.92,1.64.51.69.8,1.48.88,2.36v.28Z"/>
        <path d="m712.15,305.27c-1.07-.63-2.4-.94-4-.94-1.12,0-2.21.25-3.28.74-1.07.49-1.99,1.13-2.76,1.92-.33.33-.6.69-.84,1.05v-3.27h-4.12v21h4.12v-12.72c0-.69.14-1.34.42-1.94.28-.6.67-1.13,1.16-1.58.49-.45,1.07-.81,1.74-1.06.67-.25,1.4-.38,2.2-.38.99-.05,1.81.1,2.48.46.67.36,1.16.93,1.48,1.72.32.79.48,1.78.48,2.98v12.52h4.12v-12.8c0-1.95-.27-3.56-.8-4.84-.53-1.28-1.33-2.23-2.4-2.86Z"/>
        <path d="m726.85,308.99c1-.63,2.14-.94,3.42-.94.69,0,1.41.15,2.16.44s1.45.69,2.12,1.2c.67.51,1.21,1.07,1.64,1.68l2.28-2.8c-.8-1.31-1.97-2.34-3.5-3.1s-3.23-1.14-5.1-1.14-3.69.48-5.22,1.44c-1.53.96-2.75,2.27-3.64,3.92s-1.34,3.51-1.34,5.56.45,3.91,1.34,5.56c.89,1.65,2.11,2.96,3.64,3.92,1.53.96,3.27,1.44,5.22,1.44,1.71,0,3.35-.39,4.94-1.16,1.59-.77,2.81-1.76,3.66-2.96l-2.28-2.8c-.56.69-1.16,1.28-1.8,1.76-.64.48-1.3.84-1.98,1.08-.68.24-1.38.36-2.1.36-1.23,0-2.35-.32-3.36-.96-1.01-.64-1.83-1.5-2.44-2.58-.61-1.08-.92-2.3-.92-3.66s.29-2.59.88-3.68c.59-1.09,1.38-1.95,2.38-2.58Z"/>
        <path d="m758.65,307.21c-.87-.91-1.89-1.62-3.06-2.14-1.17-.52-2.44-.78-3.8-.78-1.55,0-2.98.27-4.3.82s-2.45,1.32-3.4,2.32c-.95,1-1.69,2.18-2.22,3.54-.53,1.36-.8,2.87-.8,4.52,0,2.08.47,3.92,1.42,5.52.95,1.6,2.25,2.86,3.92,3.78,1.67.92,3.58,1.38,5.74,1.38.99,0,1.99-.14,3.02-.42s2-.66,2.92-1.14c.92-.48,1.7-1.04,2.34-1.68l-2.08-2.92c-1.04.91-2.01,1.53-2.9,1.88-.89.35-1.86.52-2.9.52-1.47,0-2.76-.29-3.88-.88-1.12-.59-1.99-1.42-2.6-2.5-.46-.82-.75-1.74-.86-2.78h16.06l.04-1.76c.03-1.47-.19-2.82-.66-4.06-.47-1.24-1.13-2.31-2-3.22Zm-1.54,5.76h-11.74c.13-.61.3-1.16.54-1.66.51-1.05,1.25-1.85,2.24-2.4.99-.55,2.2-.82,3.64-.82.91,0,1.75.2,2.52.6.77.4,1.41.95,1.92,1.64.51.69.8,1.48.88,2.36v.28Z"/>
        <path d="m770.01,321.67c-.55-.39-1.15-.58-1.82-.58-.72,0-1.31.19-1.76.58-.45.39-.68.9-.68,1.54,0,.4.08.77.24,1.12s.51.77,1.04,1.28c.43.45.71.81.84,1.06s.2.51.2.78c0,.51-.29,1.11-.88,1.8-.59.69-1.35,1.31-2.28,1.84l1.52,1.84c.77-.29,1.48-.69,2.12-1.2.64-.51,1.2-1.08,1.68-1.72.48-.64.85-1.33,1.12-2.08.27-.75.4-1.52.4-2.32,0-.88-.15-1.66-.46-2.34-.31-.68-.73-1.21-1.28-1.6Z"/>
        <path d="m794.39,301.11c.19-.36.47-.63.86-.8.39-.17.86-.26,1.42-.26.37,0,.77.1,1.18.3.41.2.79.46,1.14.78l1.4-3.16c-.45-.53-1.05-.96-1.8-1.28s-1.55-.48-2.4-.48c-1.23,0-2.31.27-3.24.8-.93.53-1.67,1.27-2.2,2.2s-.8,2-.8,3.2v2.72h-3.36v3.8h3.36v16.84h4.16v-16.84h4.96v-3.8h-4.96v-2.72c0-.51.09-.94.28-1.3Z"/>
        <path d="m817.49,305.75c-1.61-.95-3.43-1.42-5.46-1.42s-3.89.47-5.5,1.42-2.89,2.24-3.82,3.88c-.93,1.64-1.4,3.51-1.4,5.62s.47,3.98,1.4,5.62c.93,1.64,2.21,2.93,3.82,3.88s3.45,1.42,5.5,1.42,3.85-.47,5.46-1.42c1.61-.95,2.89-2.24,3.82-3.88s1.4-3.51,1.4-5.62-.47-3.98-1.4-5.62c-.93-1.64-2.21-2.93-3.82-3.88Zm.22,13.16c-.56,1.08-1.33,1.93-2.32,2.56-.99.63-2.11.94-3.36.94s-2.38-.31-3.38-.94c-1-.63-1.78-1.48-2.34-2.56-.56-1.08-.83-2.3-.8-3.66-.03-1.36.24-2.58.8-3.66.56-1.08,1.34-1.93,2.34-2.56s2.13-.94,3.38-.94,2.37.31,3.36.92,1.76,1.46,2.32,2.54.83,2.31.8,3.7c.03,1.36-.24,2.58-.8,3.66Z"/>
        <path d="m837.75,304.33c-.99,0-1.94.24-2.86.72s-1.73,1.13-2.44,1.96c-.46.53-.82,1.11-1.1,1.72v-3.96h-4.16v21h4.16v-11.6c0-.77.15-1.49.44-2.14.29-.65.69-1.23,1.18-1.72.49-.49,1.07-.88,1.72-1.16.65-.28,1.34-.42,2.06-.42.37,0,.75.05,1.14.14.39.09.74.21,1.06.34l1.08-4.48c-.24-.11-.57-.2-.98-.28-.41-.08-.85-.12-1.3-.12Z"/>
        <path d="m871.01,307.15c-.89-.95-1.95-1.69-3.18-2.22-1.23-.53-2.56-.8-4-.8-1.55,0-2.98.27-4.3.82-1.32.55-2.46,1.32-3.42,2.32-.96,1-1.71,2.18-2.24,3.54-.53,1.36-.8,2.87-.8,4.52,0,2.11.47,3.97,1.42,5.6.95,1.63,2.28,2.91,4,3.84,1.72.93,3.73,1.4,6.02,1.4.96,0,1.93-.12,2.92-.36s1.95-.59,2.88-1.06c.93-.47,1.79-1.05,2.56-1.74l-2.72-3.8c-.88.72-1.71,1.23-2.48,1.52-.77.29-1.63.44-2.56.44-1.36,0-2.54-.26-3.54-.78-1-.52-1.77-1.25-2.32-2.18-.31-.53-.52-1.12-.66-1.76h15.08l.04-1.76c.05-1.49-.16-2.89-.64-4.18-.48-1.29-1.17-2.41-2.06-3.36Zm-2.66,5.82h-9.71c.11-.46.24-.89.43-1.28.43-.88,1.05-1.55,1.86-2s1.81-.68,2.98-.68c.8,0,1.52.17,2.16.5.64.33,1.17.79,1.58,1.36.41.57.65,1.22.7,1.94v.16Z"/>
        <polygon points="886.54 318.71 881.51 304.61 875.27 304.61 884.15 325.77 888.51 325.77 897.83 304.61 891.75 304.61 886.54 318.71"/>
        <path d="m917.25,307.15c-.89-.95-1.95-1.69-3.18-2.22-1.23-.53-2.56-.8-4-.8-1.55,0-2.98.27-4.3.82-1.32.55-2.46,1.32-3.42,2.32-.96,1-1.71,2.18-2.24,3.54-.53,1.36-.8,2.87-.8,4.52,0,2.11.47,3.97,1.42,5.6.95,1.63,2.28,2.91,4,3.84,1.72.93,3.73,1.4,6.02,1.4.96,0,1.93-.12,2.92-.36s1.95-.59,2.88-1.06c.93-.47,1.79-1.05,2.56-1.74l-2.72-3.8c-.88.72-1.71,1.23-2.48,1.52-.77.29-1.63.44-2.56.44-1.36,0-2.54-.26-3.54-.78-1-.52-1.77-1.25-2.32-2.18-.31-.53-.52-1.12-.66-1.76h15.08l.04-1.76c.05-1.49-.16-2.89-.64-4.18-.48-1.29-1.17-2.41-2.06-3.36Zm-2.66,5.82h-9.71c.11-.46.24-.89.43-1.28.43-.88,1.05-1.55,1.86-2s1.81-.68,2.98-.68c.8,0,1.52.17,2.16.5.64.33,1.17.79,1.58,1.36.41.57.65,1.22.7,1.94v.16Z"/>
        <path d="m936.03,304.17c-1.07,0-2.09.25-3.06.76-.97.51-1.82,1.21-2.54,2.1-.26.33-.49.67-.7,1.02l-.1-3.44h-5.48v21.16h5.72v-10.96c0-.67.11-1.28.34-1.84.23-.56.54-1.05.94-1.46.4-.41.87-.73,1.42-.96s1.14-.34,1.78-.34c.48,0,.95.06,1.42.18.47.12.85.26,1.14.42l1.52-6.24c-.29-.11-.65-.2-1.08-.28-.43-.08-.87-.12-1.32-.12Z"/>
        <path d="m951.99,317.09c-.2.64-.4,1.24-.59,1.8-.05-.17-.09-.32-.15-.5-.2-.6-.41-1.13-.62-1.58l-5.16-12.2h-6.44l9.56,21.08-3.96,9.28h5.76l3.64-9.2,8.88-21.16h-6.48l-4.44,12.48Z"/>
        <path d="m981.13,305.59c-1.69-.95-3.61-1.42-5.74-1.42s-4.09.47-5.78,1.42c-1.69.95-3.03,2.25-4,3.9-.97,1.65-1.46,3.55-1.46,5.68s.49,4.03,1.46,5.68c.97,1.65,2.31,2.95,4,3.9,1.69.95,3.62,1.42,5.78,1.42s4.05-.47,5.74-1.42,3.02-2.25,3.98-3.9c.96-1.65,1.44-3.55,1.44-5.68s-.48-4.03-1.44-5.68-2.29-2.95-3.98-3.9Zm-1,12.68c-.47.92-1.11,1.64-1.94,2.16-.83.52-1.76.78-2.8.78s-2.01-.26-2.84-.78c-.83-.52-1.48-1.24-1.96-2.16-.48-.92-.71-1.95-.68-3.1-.03-1.17.2-2.21.68-3.12.48-.91,1.13-1.63,1.96-2.16.83-.53,1.77-.8,2.84-.8s1.97.26,2.8.78c.83.52,1.47,1.24,1.94,2.16s.69,1.97.66,3.14c.03,1.15-.19,2.18-.66,3.1Z"/>
        <path d="m1007.05,305.13c-1.08-.64-2.42-.96-4.02-.96-1.17,0-2.29.24-3.36.72-1.07.48-1.98,1.11-2.74,1.9-.19.19-.36.39-.52.6l-.1-2.78h-5.44v21.16h5.68v-12.72c0-.56.11-1.08.34-1.56.23-.48.53-.91.92-1.28.39-.37.85-.66,1.4-.86.55-.2,1.14-.3,1.78-.3.8-.03,1.47.11,2.02.4.55.29.95.76,1.22,1.4.27.64.4,1.44.4,2.4v12.52h5.68v-12.96c0-1.89-.27-3.49-.82-4.78-.55-1.29-1.36-2.26-2.44-2.9Z"/>
        <path d="m1032.29,307.15c-.89-.95-1.95-1.69-3.18-2.22-1.23-.53-2.56-.8-4-.8-1.55,0-2.98.27-4.3.82-1.32.55-2.46,1.32-3.42,2.32-.96,1-1.71,2.18-2.24,3.54-.53,1.36-.8,2.87-.8,4.52,0,2.11.47,3.97,1.42,5.6.95,1.63,2.28,2.91,4,3.84,1.72.93,3.73,1.4,6.02,1.4.96,0,1.93-.12,2.92-.36s1.95-.59,2.88-1.06c.93-.47,1.79-1.05,2.56-1.74l-2.72-3.8c-.88.72-1.71,1.23-2.48,1.52-.77.29-1.63.44-2.56.44-1.36,0-2.54-.26-3.54-.78-1-.52-1.77-1.25-2.32-2.18-.31-.53-.52-1.12-.66-1.76h15.08l.04-1.76c.05-1.49-.16-2.89-.64-4.18-.48-1.29-1.17-2.41-2.06-3.36Zm-2.66,5.82h-9.71c.11-.46.24-.89.43-1.28.43-.88,1.05-1.55,1.86-2s1.81-.68,2.98-.68c.8,0,1.52.17,2.16.5.64.33,1.17.79,1.58,1.36.41.57.65,1.22.7,1.94v.16Z"/>
        <path d="m1040.31,315.73h3.48c.21-1.55.41-3.19.6-4.92.19-1.73.34-3.48.46-5.24.12-1.76.18-3.45.18-5.08v-3.04h-5.96v3.04c0,1.57.05,3.22.16,4.94.11,1.72.26,3.46.46,5.22.2,1.76.41,3.46.62,5.08Z"/>
        <path d="m1041.99,319.45c-.96,0-1.74.31-2.34.94-.6.63-.9,1.43-.9,2.42,0,1.09.28,1.93.84,2.52.56.59,1.36.88,2.4.88.96,0,1.74-.31,2.34-.94.6-.63.9-1.45.9-2.46,0-1.07-.29-1.89-.86-2.48s-1.37-.88-2.38-.88Z"/>
        <path class="cls-6" d="m312.19,81.9c-1.38,2.34-2.25,4.75-2.58,7.17-.19,1.4-.28,3.12-.28,5.42v.42c-1.21.6-2.35,1.34-3.41,2.2l-.43.36c-.65.58-1.25,1.22-1.81,1.9-7.37-5.33-15.71-8.04-24.86-8.04-11.14,0-21.11,4.01-29.62,11.92-1.46,1.35-2.79,2.79-4.01,4.28-.56-.74-1.14-1.46-1.76-2.17-7.23-8.32-16.83-12.71-27.75-12.71-3.81,0-7.42.74-10.8,2.22-3.19-1.47-7.12-2.22-11.75-2.22-3.81,0-7.14.51-9.99,1.5-.87-.63-1.73-1.13-2.56-1.51.54-3.45.63-4.24.63-5.31,0-5.52-2.46-10.47-6.77-13.59-4.37-3.16-9.51-3.53-12.99-3.53-5.28,0-9.22.95-12.37,2.98l-.17.11c-.83.56-1.5,1.02-2.02,1.4-.56.41-1.18.93-1.81,1.57-.81-.93-1.73-1.78-2.75-2.53-4.37-3.16-9.51-3.53-12.99-3.53-5.28,0-9.22.95-12.37,2.98l-.17.11c-.83.56-1.5,1.02-2.02,1.4-1.83,1.33-4.27,3.81-5.55,8.06-.26.86-.45,1.52-.58,2-.3,1.09-.5,2.28-.69,4-.08.7-.14,1.2-.18,1.49l-.16.99c-.88.07-1.67.17-2.41.3-3.76.69-7.1,2.76-9.93,6.16-2.34,2.81-3.85,6.11-4.48,9.8-.38,2.22-.56,4.19-.56,6.02,0,2.47.32,4.63.97,6.59l.3.8c.22.53.49,1.11.84,1.72-.5.49-.99,1.02-1.46,1.59-2.35,2.81-3.85,6.11-4.48,9.8-.01.08-.02.15-.03.22-.35,2.13-.53,4.05-.53,5.85,0,2.68.37,4.96,1.13,6.98l.28.67c1.16,2.62,3.83,6.56,9.71,8.4-.23,1.55-.23,1.81-.23,2.48,0,7.98,5.91,16.57,18.88,16.57,7.57,0,13.28-2.07,17.02-6.16,2.79,3.29,7.18,5.7,13.29,6.1.59.04,1.19.06,1.81.06,8.57,0,14.76-2.66,18.4-7.89l.38-.59c1.21-1.97,2.05-3.8,2.56-5.64.29-1.04.58-2.39.94-4.37.35-.07.7-.15,1.04-.23.04.85.11,1.6.2,2.28.28,2.14.93,4.3,2,6.59l.23.46c2.3,4.43,7.56,9.72,19.57,9.72s16.85-4.81,19.29-9.19c2.48,4.18,7.85,9.19,19.32,9.19s16.97-4.9,19.4-9.21c2.41,2.06,5,3.85,7.8,5.31,6.33,3.32,13.02,5,19.88,5s13.35-1.57,19.58-4.66c4.08-2.02,7.75-4.75,11.02-8.12,1.38-1.43,2.7-2.96,3.93-4.63,1.61,3.18,3.72,5.91,6.32,8.18,6.28,5.47,14.89,8.24,25.59,8.24,2.2,0,3.89-.09,5.3-.27,2.15-.28,4.3-.94,6.59-2.01l.3-.14c3.39-1.7,7.26-5.05,9.02-11.64,10.27,10.05,22.51,15.15,36.42,15.15,12.65,0,23.09-2.9,31.15-8.62,3.66,4.92,9.74,7.41,18.13,7.41h20.13c.76,0,1.52-.02,2.27-.05,13.67-.52,25.54-5.78,35.29-15.66,1.97-2,3.75-4.08,5.34-6.24,1.36,1.97,2.83,3.78,4.42,5.43,3.82,3.96,8.18,7.35,12.96,10.09,4.73,2.71,9.47,4.69,14.1,5.88,4.56,1.17,9.16,1.77,13.68,1.77s9.64-.78,14.57-2.33c4.94-1.55,7.99-2.78,10.16-4.09,1.23-.74,2.51-1.52,3.84-2.34,2.23-1.36,4.23-2.96,5.95-4.74,3.22-3.33,4.99-7.78,4.99-12.53,0-1.07-.1-2.14-.3-3.23-.55-3.01-1.86-6.12-4.03-9.58l-.07-.11c-5.08-7.9-11.09-11.9-17.88-11.9-3.47,0-6.94,1.17-11.62,3.93l-.5.3-1.1.79-.67.48c-.23.09-.62.22-1.21.39-.87.25-1.86.38-2.94.38-1.37,0-3.54-.25-6.57-2.42-.65-.5-1.27-1.32-1.83-2.45-.16-.31-.29-.64-.4-.99-.32-.97-.48-2.08-.48-3.37,0-1.75.29-3.18.88-4.36.53-1.07,1.12-1.88,1.67-2.3,2.44-1.72,4.64-2.56,6.73-2.56s3.71.35,4.46.96l.45.36.48.32c4.62,3.08,8.61,4.52,12.54,4.52,9.8,0,15.85-8.37,17.82-11.11,3.11-4.29,4.69-8.81,4.69-13.44,0-5.73-2.67-11.04-7.5-14.95l-.7-.53c-.95-.66-2.17-1.45-3.71-2.39l-2.81-1.64c-2.74-1.63-6.3-3.09-10.86-4.46-4.71-1.4-9.44-2.12-14.08-2.12-9.34,0-18.64,2.51-27.65,7.46-4.89,2.64-9.31,5.97-13.14,9.89-1.51,1.55-2.91,3.24-4.22,5.06-1.77-2.34-3.76-4.59-6-6.72-2.69-2.55-5.51-4.78-8.44-6.68-7.55-4.89-15.88-7.62-24.88-8.15-1.08-.06-2.17-.11-3.27-.11l-20.35-.11h-.07c-10.75,0-16.1,4.17-18.78,8.2-9.27-6.32-19.3-9.52-29.84-9.52-14.41,0-27.08,5.1-37.65,15.16-3.35,3.19-6.19,6.64-8.51,10.33-1.26-.44-2.5-.74-3.76-.91-.07,0-.13-.02-.2-.02-.1-3-.45-5.39-1.09-7.42l-.14-.43c-1-2.84-3.92-8.53-11.73-11.1-2.47-.82-5.43-1.32-8.97-1.32-9.47,0-15.97,3.04-19.32,9.03Zm-135,29.98c-.26,1.52-.84,2.85-1.73,3.96-.9,1.12-1.77,1.76-2.6,1.92-.82.15-2.01.22-3.65.22h-5.39l-1.94,11.85h5.46c1.39,0,2.42.06,3.05.17.65.11,1.28.52,1.89,1.19.6.68.91,1.69.91,3s-.11,2.57-.33,3.82c-.22,1.25-.57,2.41-1.05,3.44-.49,1.05-1.15,1.81-1.98,2.26-1.19.59-2.87.9-5.01.9h-5.39c-.72,4.47-1.16,7.28-1.3,8.36l-.22,1.22c-.29,1.6-.53,2.75-.72,3.42-.19.67-.58,1.5-1.17,2.45-1.2,1.72-3.97,2.59-8.25,2.59s-6.5-1.41-6.5-4.19c0-.11.48-3.18.88-5.74l1.3-8.11h-16.14c-.73,4.54-1.16,7.28-1.3,8.36l-.22,1.22c-.29,1.6-.53,2.75-.72,3.42-.19.67-.58,1.49-1.17,2.45-1.2,1.72-3.97,2.59-8.25,2.59s-6.5-1.41-6.5-4.19c0-.11.48-3.18.88-5.74l1.3-8.11h-7.11c-3.12,0-5.01-.69-5.61-2.05-.23-.6-.34-1.49-.34-2.64s.13-2.48.39-3.98c.26-1.52.86-2.85,1.79-3.96.93-1.12,1.83-1.76,2.66-1.91.81-.15,2.04-.22,3.65-.22h7.04l1.94-11.85h-7.11c-3.24,0-5.08-.64-5.62-1.95-.23-.68-.34-1.58-.34-2.69s.13-2.43.39-3.93c.26-1.52.86-2.85,1.79-3.96.93-1.12,1.82-1.76,2.66-1.91.81-.15,2.04-.22,3.65-.22h7.04l1.85-11.23c.08-.46.17-1.2.27-2.14.11-1.01.22-1.7.33-2.11.11-.4.28-.98.5-1.71.23-.76.56-1.3.98-1.61.41-.3.95-.67,1.6-1.1,1.04-.67,2.95-1.01,5.68-1.01s4.66.4,5.74,1.18c1.09.79,1.65,1.99,1.65,3.57,0,.14-.06.7-.55,3.87l-2.07,12.29h16.14l1.85-11.23c.07-.45.17-1.17.27-2.14.11-.99.22-1.7.33-2.11.11-.4.28-.97.5-1.71.23-.76.56-1.3.98-1.61.41-.3.95-.67,1.6-1.1,1.04-.67,2.95-1.01,5.68-1.01s4.66.4,5.74,1.18c1.09.79,1.65,1.99,1.65,3.57,0,.23-.18,1.49-.55,3.87l-2.07,12.29h5.46c1.39,0,2.42.06,3.05.17.65.11,1.28.52,1.89,1.2.61.68.91,1.69.91,3s-.13,2.7-.39,4.2Zm64.3,41.39c0,1.69-.06,2.97-.17,3.81-.11.85-.43,1.81-.95,2.84-1.05,2.02-3.97,3.04-8.69,3.04-5.24,0-8.32-1.4-9.14-4.16-.44-1.25-.67-3.15-.67-5.65v-19.36c0-2.96-.86-5.29-2.55-6.95-1.69-1.66-3.99-2.49-6.84-2.49s-5.19.88-6.95,2.6c-1.76,1.73-2.66,4.03-2.66,6.84v19.47c0,1.69-.06,2.97-.17,3.81-.11.85-.47,1.81-1.06,2.85-.97,2.01-3.85,3.03-8.58,3.03s-7.54-1.02-8.58-3.04c-.52-1.11-.84-2.1-.95-2.96-.11-.84-.17-2.13-.17-3.81v-38.94c0-1.61.06-2.85.17-3.7.11-.86.47-1.82,1.06-2.85,1.05-1.87,3.93-2.81,8.58-2.81s7.31.87,8.36,2.59c.69,1.17,1.06,2.57,1.11,4.17.36-.49.95-1.12,1.78-1.88,1.03-.95,2.03-1.73,2.99-2.32,2.5-1.69,5.3-2.55,8.32-2.55,7.34,0,13.53,2.85,18.41,8.46,4.87,5.61,7.35,12.54,7.35,20.6v19.36Zm279.48-46.63c1.9-4.65,4.37-8.55,7.34-11.59,2.97-3.04,6.4-5.62,10.21-7.67,7.17-3.95,14.48-5.96,21.73-5.96,3.44,0,6.98.54,10.54,1.6,3.55,1.06,6.28,2.16,8.11,3.26l2.64,1.54c1.31.8,2.35,1.47,3.09,1.99,1.94,1.56,2.91,3.35,2.91,5.33s-.79,4.04-2.33,6.18c-2.87,3.98-5.5,5.99-7.8,5.99-1.34,0-3.25-.82-5.68-2.44-3.05-2.47-7.17-3.72-12.25-3.72-4.72,0-9.43,1.66-14.01,4.93-2.17,1.59-4.01,3.87-5.46,6.77-1.45,2.9-2.19,6.23-2.19,9.9s.74,7,2.19,9.9c1.45,2.9,3.33,5.22,5.57,6.89,4.43,3.19,9.1,4.82,13.9,4.82,2.25,0,4.41-.29,6.4-.88,2-.58,3.45-1.17,4.31-1.74l1.98-1.43c2.55-1.5,4.29-2.22,5.35-2.22,2.31,0,4.82,2.09,7.48,6.22,1.62,2.58,2.44,4.67,2.44,6.23s-.51,2.89-1.52,3.94c-.99,1.03-2.17,1.96-3.49,2.77-1.32.81-2.58,1.58-3.79,2.31-1.22.74-3.72,1.7-7.45,2.87-3.74,1.17-7.4,1.77-10.87,1.77s-7.04-.46-10.59-1.38c-3.55-.91-7.26-2.47-11.03-4.63-3.77-2.16-7.2-4.83-10.2-7.94-3-3.11-5.51-7.16-7.45-12.03-1.94-4.87-2.92-10.23-2.92-15.94s.97-10.96,2.87-15.61Zm-78.66-14.75c0-1.75.06-3.06.17-3.87.11-.82.47-1.8,1.06-2.9,1.04-2.01,3.97-3.04,8.69-3.04h0l20.35.11c10.61,0,20.08,3.88,28.14,11.53,8.06,7.65,12.14,17.19,12.14,28.36s-3.99,20.87-11.86,28.85c-7.87,7.98-17.54,12.03-28.74,12.03h-20.13c-4.5,0-7.35-.95-8.47-2.81-.89-1.55-1.34-3.94-1.34-7.1v-61.16Zm-67.83.62c8.2-7.8,18-11.75,29.13-11.75,8.64,0,16.92,2.9,24.6,8.6,2,1.49,3.02,3.17,3.02,5s-.86,3.93-2.55,6.29c-2.87,3.9-5.53,5.88-7.91,5.88-1.41,0-3.69-1.02-6.78-3.05-3.05-1.99-6.72-3-10.93-3-5.51,0-10.48,1.97-14.77,5.85-4.28,3.88-6.45,9.03-6.45,15.31s2.21,11.69,6.56,16.08c4.35,4.39,9.36,6.62,14.87,6.62,3.96,0,7.59-.65,10.77-1.94v-11.78h-8.56c-2.29,0-3.94-.3-4.91-.9-.98-.6-1.63-1.5-1.93-2.66-.29-1.14-.44-2.7-.44-4.65s.17-3.53.5-4.71c.34-1.2.97-2.04,1.88-2.5,1.33-.67,3.13-1,5.34-1h19.36c4,.15,6.48,1.21,7.37,3.15.74,1.4,1.11,3.49,1.11,6.21v24.2c0,2.37-1.05,4.66-3.12,6.8-6.16,6.38-15.51,9.61-27.81,9.61-10.91,0-20.53-4.18-28.58-12.41-8.05-8.23-12.14-18.31-12.14-29.95s4.16-21.5,12.36-29.3Zm-70.1,57.69c-3.15,4.73-7.04,8.26-11.54,10.49-4.5,2.24-9.24,3.37-14.08,3.37s-9.6-1.21-14.14-3.59c-4.54-2.38-8.43-5.95-11.54-10.6-3.12-4.65-4.7-9.99-4.7-15.85,0-8.8,3.12-16.15,9.28-21.87,6.15-5.72,13.29-8.61,21.2-8.61s15.01,2.88,21.1,8.56c6.08,5.68,9.17,13.02,9.17,21.82,0,6.08-1.6,11.56-4.75,16.29Zm36.2-61c.37,1.19.56,3.09.56,5.65v10.64c3.16-.28,5.58-.43,7.19-.43s2.91.06,3.76.17c.85.11,1.85.47,2.96,1.06,1.94.97,2.93,3.86,2.93,8.58s-1.02,7.54-3.04,8.58c-1.11.52-2.1.84-2.96.95-.85.11-2.13.17-3.81.17h0l-7.02-.43v15.05c0,1.94.31,3.36.91,4.22.59.84,1.74,1.27,3.42,1.27s3.06.06,3.98.17c.93.11,1.92.47,2.96,1.06,1.72.97,2.59,3.49,2.59,7.48,0,4.65-1.06,7.54-3.15,8.58-1.11.52-2.1.84-2.95.95-.85.11-2.09.17-3.7.17-7.62,0-13.5-1.75-17.46-5.2-3.97-3.46-5.98-9.37-5.98-17.58v-16.13c-1.36.21-2.83.31-4.39.31-1.65,0-3.03-.64-4.11-1.91-1.08-1.26-1.62-3.44-1.62-6.46s.19-5.22.55-6.58c.37-1.37.9-2.37,1.58-2.98,1.19-.97,2.7-1.46,4.48-1.46l3.5.42v-11.19c0-1.68.06-2.95.17-3.76.11-.82.47-1.73,1.06-2.69.97-1.86,3.85-2.81,8.58-2.81,5.02,0,8.06,1.4,9.03,4.15Z"/>
        <polygon class="cls-6" points="145.88 129.83 147.82 117.98 131.79 117.98 129.75 129.83 145.88 129.83"/>
        <path class="cls-6" d="m286.05,125.77c-2.24-1.73-4.69-2.61-7.29-2.61s-5.05.92-7.29,2.72c-2.23,1.8-3.36,4.49-3.36,7.99s1.17,6.17,3.47,7.93c2.31,1.77,4.69,2.67,7.07,2.67s4.8-.92,7.18-2.72c2.38-1.8,3.58-4.5,3.58-8.04s-1.13-6.2-3.36-7.93Z"/>
        <path class="cls-6" d="m486.79,137.4c4.21-3.88,6.34-8.83,6.34-14.7s-2.08-10.86-6.18-14.82c-4.1-3.95-8.98-5.96-14.49-5.96h-10.44v41.33h10.54c5.22,0,10.01-1.97,14.21-5.85Z"/>
        <path d="m174.73,103.74c-.61-.11-1.62-.16-3-.16h-5.76l.02-.15,2.09-12.43c.36-2.33.55-3.62.55-3.83,0-1.49-.52-2.62-1.54-3.36-1.04-.75-2.92-1.13-5.59-1.13s-4.54.33-5.54.97c-.65.43-1.19.8-1.59,1.1-.38.28-.68.77-.89,1.48-.22.73-.38,1.3-.49,1.7-.11.4-.22,1.09-.33,2.07-.11.97-.2,1.69-.28,2.15l-1.89,11.44h-16.64l.02-.15,2.09-12.43c.36-2.33.55-3.62.55-3.83,0-1.49-.52-2.62-1.54-3.36-1.04-.75-2.92-1.13-5.59-1.13s-4.54.33-5.54.97c-.65.43-1.19.8-1.59,1.1-.38.28-.68.77-.89,1.48-.22.73-.38,1.3-.49,1.7-.11.4-.22,1.09-.33,2.07-.1.94-.2,1.69-.28,2.15l-1.89,11.44h-7.26c-1.6,0-2.81.07-3.61.22-.77.14-1.62.76-2.51,1.83-.9,1.08-1.48,2.37-1.73,3.85-.25,1.48-.38,2.79-.38,3.88s.11,1.96.32,2.6c.49,1.18,2.3,1.78,5.38,1.78h7.41l-.02.15-2,12.21h-7.26c-1.6,0-2.81.07-3.61.22-.77.14-1.62.76-2.51,1.83-.9,1.08-1.48,2.37-1.73,3.85-.25,1.48-.38,2.81-.38,3.94s.11,1.97.32,2.54c.56,1.26,2.37,1.9,5.38,1.9h7.41l-1.34,8.39c-.64,4.06-.87,5.61-.88,5.7,0,2.65,2.05,3.94,6.25,3.94s6.89-.83,8.04-2.48c.57-.93.96-1.74,1.14-2.38.18-.66.42-1.81.71-3.4l.22-1.21c.14-1.09.58-3.86,1.32-8.47l.02-.1h16.64l-1.34,8.39c-.64,4.06-.87,5.61-.88,5.7,0,2.65,2.05,3.94,6.25,3.94s6.89-.83,8.04-2.48c.57-.93.96-1.73,1.14-2.38.18-.66.42-1.8.71-3.4l.22-1.21c.15-1.1.58-3.87,1.32-8.47l.02-.1h5.61c2.1,0,3.75-.29,4.89-.87.77-.42,1.4-1.14,1.87-2.14.47-1.01.82-2.15,1.04-3.38.22-1.23.33-2.5.33-3.77s-.29-2.2-.85-2.83c-.57-.64-1.15-1.01-1.74-1.11-.61-.11-1.62-.16-3-.16h-5.76l.02-.15,2-12.21h5.61c1.6,0,2.82-.07,3.61-.22.77-.14,1.6-.75,2.45-1.83.86-1.08,1.43-2.37,1.68-3.85.25-1.49.38-2.89.38-4.16s-.29-2.2-.85-2.83c-.57-.64-1.15-1.01-1.74-1.12Zm-26.64,14.14l-2,12.21h-16.64l2.13-12.35h16.53l-.02.15Z"/>
        <path class="cls-9" d="m174.77,103.49c-.63-.11-1.65-.17-3.05-.17h-5.46l2.07-12.29c.37-2.38.55-3.64.55-3.87,0-1.57-.55-2.77-1.65-3.57-1.08-.78-3.01-1.18-5.74-1.18s-4.64.34-5.68,1.01c-.65.44-1.19.81-1.6,1.1-.42.31-.75.85-.98,1.61-.22.73-.39,1.3-.5,1.71-.11.41-.22,1.12-.33,2.11-.11.97-.2,1.69-.27,2.14l-1.85,11.23h-16.14l2.07-12.29c.49-3.17.55-3.73.55-3.87,0-1.57-.55-2.77-1.65-3.57-1.08-.78-3.01-1.18-5.74-1.18s-4.64.34-5.68,1.01c-.65.44-1.19.81-1.6,1.1-.42.31-.75.85-.98,1.61-.22.73-.39,1.31-.5,1.71-.11.41-.22,1.1-.33,2.11-.1.94-.2,1.68-.27,2.14l-1.85,11.23h-7.04c-1.61,0-2.84.07-3.65.22-.83.15-1.73.8-2.66,1.91-.93,1.11-1.53,2.45-1.79,3.96-.26,1.5-.39,2.82-.39,3.93s.11,2.01.34,2.69c.54,1.31,2.38,1.95,5.62,1.95h7.11l-1.94,11.85h-7.04c-1.61,0-2.84.07-3.65.22-.83.15-1.73.8-2.66,1.91-.93,1.11-1.53,2.44-1.79,3.96-.26,1.5-.39,2.84-.39,3.98s.11,2.03.34,2.64c.6,1.36,2.49,2.05,5.61,2.05h7.11l-1.3,8.11c-.4,2.56-.88,5.63-.88,5.74,0,2.78,2.19,4.19,6.5,4.19s7.05-.87,8.25-2.59c.59-.96.98-1.78,1.17-2.45.18-.67.43-1.82.72-3.42l.22-1.22c.14-1.08.57-3.82,1.3-8.36h16.14l-1.3,8.11c-.4,2.56-.88,5.63-.88,5.74,0,2.78,2.19,4.19,6.5,4.19s7.05-.87,8.25-2.59c.59-.96.98-1.78,1.17-2.45.18-.67.43-1.82.72-3.42l.22-1.22c.14-1.08.58-3.89,1.3-8.36h5.39c2.14,0,3.82-.3,5.01-.9.83-.45,1.49-1.21,1.98-2.26.48-1.03.83-2.19,1.05-3.44.22-1.25.33-2.53.33-3.82s-.31-2.32-.91-3c-.6-.68-1.24-1.08-1.89-1.19-.63-.11-1.65-.17-3.05-.17h-5.46l1.94-11.85h5.39c1.64,0,2.83-.07,3.65-.22.83-.15,1.71-.8,2.6-1.92.89-1.11,1.47-2.44,1.73-3.96.26-1.5.39-2.92.39-4.2s-.31-2.32-.91-3c-.6-.68-1.24-1.08-1.89-1.2Zm2.17,8.35c-.25,1.48-.82,2.77-1.68,3.85-.86,1.07-1.68,1.69-2.45,1.83-.79.14-2.01.22-3.61.22h-5.61l-2,12.21-.02.15h5.76c1.38,0,2.39.05,3,.16.59.1,1.18.48,1.74,1.11.56.63.85,1.59.85,2.83s-.11,2.54-.33,3.77c-.22,1.23-.56,2.36-1.04,3.38-.46,1-1.09,1.72-1.87,2.14-1.15.58-2.79.87-4.89.87h-5.61l-.02.1c-.74,4.6-1.17,7.37-1.32,8.47l-.22,1.21c-.29,1.6-.53,2.74-.71,3.4-.18.65-.56,1.45-1.14,2.38-1.14,1.64-3.85,2.48-8.04,2.48s-6.25-1.29-6.25-3.94c0-.09.24-1.64.88-5.7l1.34-8.39h-16.64l-.02.1c-.74,4.61-1.18,7.38-1.32,8.47l-.22,1.21c-.29,1.59-.53,2.74-.71,3.4-.18.65-.56,1.45-1.14,2.38-1.14,1.64-3.85,2.48-8.04,2.48s-6.25-1.29-6.25-3.94c0-.09.24-1.64.88-5.7l1.34-8.39h-7.41c-3.01,0-4.82-.64-5.38-1.9-.21-.57-.32-1.42-.32-2.54s.13-2.45.38-3.94c.25-1.48.83-2.77,1.73-3.85.89-1.07,1.74-1.69,2.51-1.83.8-.15,2.01-.22,3.61-.22h7.26l2-12.21.02-.15h-7.41c-3.08,0-4.9-.6-5.38-1.78-.21-.64-.32-1.52-.32-2.6s.13-2.4.38-3.88c.25-1.47.83-2.77,1.73-3.85.89-1.07,1.74-1.69,2.51-1.83.8-.14,2.01-.22,3.61-.22h7.26l1.89-11.44c.08-.46.17-1.21.28-2.15.11-.98.22-1.68.33-2.07.11-.4.28-.97.49-1.7.21-.7.51-1.2.89-1.48.4-.29.94-.66,1.59-1.1,1-.64,2.87-.97,5.54-.97s4.55.38,5.59,1.13c1.02.74,1.54,1.87,1.54,3.36,0,.21-.18,1.5-.55,3.83l-2.09,12.43-.02.15h16.64l1.89-11.44c.08-.46.17-1.18.28-2.15.11-.98.22-1.67.33-2.07.11-.4.27-.97.49-1.7.21-.7.51-1.2.89-1.48.4-.29.94-.66,1.59-1.1,1-.64,2.87-.97,5.54-.97s4.55.38,5.59,1.13c1.02.74,1.54,1.87,1.54,3.36,0,.21-.18,1.5-.55,3.83l-2.09,12.43-.02.15h5.76c1.38,0,2.39.05,3,.16.59.1,1.18.48,1.74,1.12.56.63.85,1.59.85,2.83s-.13,2.67-.38,4.16Z"/>
        <path class="cls-9" d="m129.45,130.08h16.64l2-12.21.02-.15h-16.53l-2.13,12.35Zm18.37-12.1l-1.94,11.85h-16.13l2.05-11.85h16.03Z"/>
        <path d="m215.73,105.11c-2.97,0-5.72.84-8.18,2.51-.95.58-1.94,1.36-2.95,2.3-1.01.94-1.67,1.67-1.96,2.17l-.23.41v-.47c0-1.73-.36-3.22-1.08-4.45-1-1.64-3.74-2.47-8.14-2.47s-7.36.9-8.36,2.69c-.58,1.01-.92,1.94-1.03,2.76-.11.84-.16,2.07-.16,3.67v38.94c0,1.67.06,2.94.16,3.78.11.83.42,1.79.92,2.88,1,1.92,3.81,2.9,8.36,2.9s7.43-.98,8.36-2.9c.58-1.02.93-1.94,1.03-2.77.11-.83.16-2.1.16-3.78v-19.47c0-2.88.92-5.24,2.73-7.02,1.81-1.78,4.21-2.68,7.13-2.68s5.28.86,7.02,2.57c1.74,1.71,2.62,4.1,2.62,7.13v19.36c0,2.47.22,4.34.65,5.57.79,2.65,3.78,3.99,8.9,3.99,4.62,0,7.47-.98,8.47-2.9.5-1.01.81-1.94.92-2.76.11-.83.16-2.1.16-3.78v-19.36c0-8-2.45-14.87-7.28-20.43-4.83-5.56-10.96-8.37-18.22-8.37Z"/>
        <path class="cls-9" d="m215.73,104.86c-3.02,0-5.82.86-8.32,2.55-.96.59-1.96,1.37-2.99,2.32-.82.76-1.42,1.4-1.78,1.88-.05-1.6-.43-3-1.11-4.17-1.05-1.72-3.86-2.59-8.36-2.59s-7.53.95-8.58,2.81c-.59,1.03-.95,1.99-1.06,2.85-.11.85-.17,2.09-.17,3.7v38.94c0,1.68.06,2.97.17,3.81.11.85.43,1.85.95,2.96,1.04,2.02,3.93,3.04,8.58,3.04s7.61-1.02,8.58-3.03c.59-1.04.95-2,1.06-2.85.11-.84.17-2.12.17-3.81v-19.47c0-2.81.89-5.11,2.66-6.84,1.76-1.73,4.1-2.6,6.95-2.6s5.15.84,6.84,2.49c1.69,1.66,2.55,4,2.55,6.95v19.36c0,2.5.22,4.4.67,5.65.82,2.76,3.9,4.16,9.14,4.16,4.72,0,7.64-1.02,8.69-3.04.52-1.04.84-1.99.95-2.84.11-.84.17-2.12.17-3.81v-19.36c0-8.06-2.47-14.99-7.35-20.6-4.88-5.61-11.07-8.46-18.41-8.46Zm25.5,48.42c0,1.68-.06,2.95-.16,3.78-.11.82-.42,1.75-.92,2.76-1,1.93-3.85,2.9-8.47,2.9-5.12,0-8.12-1.34-8.9-3.99-.43-1.23-.65-3.1-.65-5.57v-19.36c0-3.02-.88-5.42-2.62-7.13-1.74-1.7-4.1-2.57-7.02-2.57s-5.31.9-7.13,2.68c-1.81,1.78-2.73,4.14-2.73,7.02v19.47c0,1.68-.06,2.95-.16,3.78-.11.82-.45,1.75-1.03,2.77-.93,1.92-3.74,2.9-8.36,2.9s-7.36-.98-8.36-2.9c-.51-1.08-.82-2.05-.92-2.88-.11-.83-.16-2.11-.16-3.78v-38.94c0-1.6.06-2.83.16-3.67.11-.82.45-1.75,1.03-2.76,1-1.78,3.81-2.69,8.36-2.69s7.14.83,8.14,2.47c.72,1.22,1.08,2.72,1.08,4.45v.47l.23-.41c.29-.5.94-1.23,1.96-2.17,1.01-.94,2.01-1.71,2.95-2.3,2.46-1.66,5.21-2.51,8.18-2.51,7.26,0,13.39,2.82,18.22,8.37,4.83,5.56,7.28,12.44,7.28,20.43v19.36Z"/>
        <path d="m299.79,112.29c-6.04-5.63-13.08-8.49-20.92-8.49s-14.93,2.88-21.03,8.55c-6.1,5.67-9.2,12.97-9.2,21.69,0,5.82,1.57,11.1,4.65,15.72,3.09,4.62,6.94,8.16,11.45,10.52,4.51,2.36,9.22,3.56,14.02,3.56s9.5-1.12,13.97-3.34c4.47-2.21,8.32-5.72,11.45-10.41,3.12-4.69,4.71-10.12,4.71-16.16,0-8.72-3.06-16-9.09-21.63Zm-13.81,29.65c-2.43,1.84-4.9,2.78-7.34,2.78s-4.87-.92-7.23-2.72c-2.37-1.81-3.57-4.55-3.57-8.13s1.16-6.33,3.46-8.18c2.29-1.84,4.79-2.78,7.45-2.78s5.16.9,7.45,2.67c2.29,1.78,3.46,4.51,3.46,8.13s-1.24,6.39-3.68,8.24Z"/>
        <path class="cls-9" d="m299.96,112.1c-6.08-5.68-13.18-8.56-21.1-8.56s-15.05,2.9-21.2,8.61c-6.16,5.72-9.28,13.08-9.28,21.87,0,5.87,1.58,11.2,4.7,15.85,3.11,4.65,7,8.22,11.54,10.6,4.54,2.38,9.3,3.59,14.14,3.59s9.58-1.13,14.08-3.37c4.51-2.23,8.39-5.76,11.54-10.49,3.15-4.73,4.75-10.21,4.75-16.29,0-8.79-3.08-16.13-9.17-21.82Zm4.21,37.97c-3.13,4.69-6.98,8.19-11.45,10.41-4.47,2.22-9.17,3.34-13.97,3.34s-9.52-1.2-14.02-3.56c-4.51-2.36-8.36-5.9-11.45-10.52-3.09-4.61-4.65-9.9-4.65-15.72,0-8.72,3.1-16.02,9.2-21.69,6.11-5.67,13.18-8.55,21.03-8.55s14.89,2.86,20.92,8.49c6.03,5.63,9.09,12.91,9.09,21.63,0,6.03-1.58,11.47-4.71,16.16Z"/>
        <path class="cls-9" d="m286.2,125.57c-2.29-1.77-4.79-2.67-7.45-2.67s-5.16.93-7.45,2.78c-2.29,1.85-3.46,4.6-3.46,8.18s1.2,6.32,3.57,8.13c2.36,1.81,4.79,2.72,7.23,2.72s4.91-.93,7.34-2.78c2.44-1.85,3.68-4.62,3.68-8.24s-1.16-6.35-3.46-8.13Zm-.37,16.17c-2.39,1.81-4.8,2.72-7.18,2.72s-4.76-.9-7.07-2.67c-2.3-1.76-3.47-4.43-3.47-7.93s1.13-6.19,3.36-7.99c2.24-1.81,4.69-2.72,7.29-2.72s5.05.88,7.29,2.61c2.23,1.73,3.36,4.4,3.36,7.93s-1.2,6.24-3.58,8.04Z"/>
        <path d="m322.16,90.6c-.11.8-.16,2.05-.16,3.72v11.47l-3.77-.46c-1.71,0-3.16.47-4.31,1.4-.64.57-1.14,1.53-1.5,2.85-.36,1.34-.55,3.53-.55,6.51s.53,5.08,1.57,6.3c1.03,1.21,2.35,1.83,3.92,1.83s3.11-.11,4.49-.33l.14-.02v16.43c0,8.14,1.98,13.99,5.9,17.4,3.92,3.41,9.74,5.14,17.3,5.14,1.6,0,2.83-.06,3.67-.16.83-.11,1.8-.42,2.88-.92,1.99-1,3.01-3.81,3.01-8.36,0-3.89-.83-6.34-2.47-7.26-1.01-.58-1.98-.92-2.87-1.03-.91-.11-2.23-.16-3.95-.16s-2.98-.46-3.62-1.37c-.64-.9-.96-2.36-.96-4.36v-15.31h.13s7.15.45,7.15.45c1.67,0,2.94-.06,3.77-.16.83-.11,1.8-.42,2.88-.92,1.92-1,2.9-3.81,2.9-8.36s-.94-7.43-2.79-8.36c-1.09-.58-2.05-.93-2.88-1.03-.84-.11-2.09-.16-3.72-.16s-4.08.15-7.3.44h-.14s0-10.9,0-10.9c0-2.54-.18-4.41-.54-5.57-.93-2.64-3.89-3.98-8.79-3.98-4.62,0-7.43.9-8.36,2.68-.58.94-.92,1.81-1.03,2.6Z"/>
        <path class="cls-9" d="m322.98,87.87c-.59.96-.95,1.87-1.06,2.69-.11.81-.17,2.07-.17,3.76v11.19l-3.5-.42c-1.78,0-3.29.49-4.48,1.46-.68.6-1.21,1.6-1.58,2.98-.37,1.36-.55,3.57-.55,6.58s.55,5.2,1.62,6.46c1.08,1.27,2.46,1.91,4.11,1.91,1.55,0,3.03-.1,4.39-.31v16.13c0,8.21,2.01,14.13,5.98,17.58,3.96,3.45,9.84,5.2,17.46,5.2,1.61,0,2.85-.06,3.7-.17.85-.11,1.85-.43,2.95-.95,2.09-1.04,3.15-3.93,3.15-8.58,0-3.99-.87-6.51-2.59-7.48-1.04-.59-2.04-.95-2.96-1.06-.92-.11-2.25-.17-3.98-.17s-2.82-.43-3.42-1.27c-.61-.85-.91-2.27-.91-4.22v-15.05l7.02.43h0c1.68,0,2.96-.06,3.81-.17.85-.11,1.85-.43,2.96-.95,2.02-1.04,3.04-3.93,3.04-8.58s-.99-7.61-2.93-8.58c-1.11-.59-2.1-.95-2.96-1.06-.85-.11-2.11-.17-3.76-.17s-4.03.14-7.19.43v-10.64c0-2.56-.19-4.46-.56-5.65-.97-2.76-4.01-4.15-9.03-4.15-4.72,0-7.61.95-8.58,2.81Zm8.58-2.56c4.9,0,7.86,1.34,8.79,3.98.36,1.16.54,3.03.54,5.57v10.92h.14c3.22-.3,5.68-.45,7.3-.45s2.89.06,3.72.16c.82.11,1.79.45,2.88,1.03,1.85.93,2.79,3.74,2.79,8.36s-.98,7.36-2.9,8.36c-1.08.51-2.05.82-2.88.92-.83.11-2.1.16-3.77.16l-7.15-.44h-.13s0,15.31,0,15.31c0,2,.32,3.47.96,4.36.64.91,1.86,1.37,3.62,1.37s3.04.06,3.95.16c.89.11,1.86.45,2.87,1.03,1.64.93,2.47,3.37,2.47,7.26,0,4.55-1.01,7.36-3.01,8.36-1.08.51-2.05.82-2.88.92-.84.11-2.07.16-3.67.16-7.56,0-13.38-1.73-17.3-5.14-3.91-3.41-5.9-9.26-5.9-17.4v-16.43l-.14.02c-1.38.22-2.89.33-4.49.33s-2.89-.61-3.92-1.83c-1.04-1.22-1.57-3.34-1.57-6.3s.18-5.18.55-6.51c.36-1.32.86-2.29,1.5-2.85,1.15-.93,2.6-1.4,4.31-1.4l3.77.46v-11.47c0-1.67.06-2.92.16-3.72.11-.79.45-1.66,1.03-2.6.93-1.78,3.74-2.68,8.36-2.68Z"/>
        <path d="m402.83,163.93c12.23,0,21.52-3.21,27.63-9.53,2.02-2.09,3.04-4.32,3.04-6.62v-24.2c0-2.68-.37-4.73-1.09-6.1-.86-1.86-3.26-2.87-7.15-3.01h-19.35c-2.17,0-3.93.33-5.22.98-.84.42-1.43,1.21-1.75,2.34-.33,1.16-.49,2.72-.49,4.64s.15,3.47.44,4.59c.28,1.1.89,1.94,1.81,2.51.93.57,2.53.86,4.77.86h8.81v12.2l-.08.03c-3.23,1.32-6.91,1.99-10.94,1.99-5.58,0-10.65-2.25-15.05-6.69-4.4-4.44-6.64-9.91-6.64-16.26s2.2-11.56,6.53-15.49c4.33-3.93,9.36-5.92,14.93-5.92,4.26,0,7.98,1.02,11.07,3.05,3.04,1.99,5.28,3,6.64,3,2.29,0,4.89-1.94,7.71-5.78,1.66-2.31,2.51-4.38,2.51-6.14s-.98-3.36-2.92-4.79c-7.64-5.68-15.87-8.56-24.46-8.56-11.06,0-20.8,3.93-28.95,11.68-8.15,7.75-12.28,17.54-12.28,29.11s4.06,21.59,12.06,29.78c8,8.19,17.56,12.34,28.4,12.34Z"/>
        <path class="cls-9" d="m402.83,164.18c12.3,0,21.65-3.23,27.81-9.61,2.07-2.14,3.12-4.43,3.12-6.8v-24.2c0-2.72-.38-4.81-1.11-6.21-.9-1.94-3.38-3-7.37-3.15h-19.36c-2.21,0-4,.34-5.34,1-.91.45-1.54,1.29-1.88,2.5-.33,1.18-.5,2.76-.5,4.71s.15,3.51.44,4.65c.3,1.16.95,2.06,1.93,2.66.97.6,2.62.9,4.91.9h8.56v11.78c-3.18,1.29-6.8,1.94-10.77,1.94-5.51,0-10.52-2.23-14.87-6.62-4.36-4.39-6.56-9.8-6.56-16.08s2.17-11.43,6.45-15.31c4.28-3.88,9.25-5.85,14.77-5.85,4.21,0,7.89,1.01,10.93,3,3.08,2.02,5.37,3.05,6.78,3.05,2.38,0,5.04-1.98,7.91-5.88,1.69-2.36,2.55-4.47,2.55-6.29s-1.02-3.51-3.02-5c-7.69-5.71-15.96-8.6-24.6-8.6-11.13,0-20.93,3.95-29.13,11.75-8.2,7.8-12.36,17.65-12.36,29.3s4.08,21.72,12.14,29.95c8.05,8.24,17.67,12.41,28.58,12.41Zm-28.18-71.48c8.15-7.75,17.89-11.68,28.95-11.68,8.59,0,16.81,2.88,24.46,8.56,1.94,1.44,2.92,3.05,2.92,4.79s-.84,3.83-2.51,6.14c-2.82,3.83-5.42,5.78-7.71,5.78-1.36,0-3.6-1.01-6.64-3-3.09-2.02-6.81-3.05-11.07-3.05-5.58,0-10.6,1.99-14.93,5.92-4.33,3.93-6.53,9.14-6.53,15.49s2.23,11.82,6.64,16.26c4.4,4.44,9.47,6.69,15.05,6.69,4.03,0,7.71-.67,10.94-1.99l.08-.03v-12.2h-8.81c-2.24,0-3.85-.29-4.77-.86-.92-.57-1.53-1.41-1.81-2.51-.29-1.12-.44-2.66-.44-4.59s.17-3.48.49-4.64c.32-1.13.91-1.92,1.75-2.34,1.3-.65,3.05-.98,5.22-.98h19.35c3.89.15,6.3,1.16,7.15,3.01.72,1.37,1.09,3.43,1.09,6.1v24.2c0,2.3-1.02,4.53-3.04,6.62-6.11,6.33-15.4,9.53-27.63,9.53-10.84,0-20.4-4.15-28.4-12.34-8.01-8.19-12.06-18.2-12.06-29.78s4.13-21.37,12.28-29.11Z"/>
        <path d="m452.11,162.72h20.13c11.13,0,20.74-4.02,28.57-11.95,7.82-7.93,11.79-17.58,11.79-28.68s-4.06-20.58-12.06-28.18c-8.01-7.6-17.42-11.46-27.96-11.46l-20.35-.11c-4.62,0-7.47.98-8.47,2.9-.58,1.08-.92,2.03-1.03,2.82-.11.8-.16,2.09-.16,3.83v61.16c0,3.12.44,5.46,1.3,6.98,1.07,1.78,3.85,2.69,8.25,2.69Zm9.67-61.05h10.69c5.58,0,10.51,2.03,14.66,6.03,4.15,4.01,6.25,9.05,6.25,15s-2.16,10.96-6.42,14.89c-4.26,3.93-9.1,5.92-14.38,5.92h-10.79v-41.83Z"/>
        <path class="cls-9" d="m452.11,162.97h20.13c11.2,0,20.87-4.05,28.74-12.03,7.87-7.98,11.86-17.69,11.86-28.85s-4.08-20.71-12.14-28.36c-8.05-7.65-17.52-11.53-28.14-11.53l-20.35-.11h0c-4.72,0-7.65,1.02-8.69,3.04-.59,1.11-.95,2.08-1.06,2.9-.11.81-.17,2.11-.17,3.87v61.16c0,3.16.45,5.55,1.34,7.1,1.12,1.86,3.97,2.81,8.47,2.81Zm-9.56-71.08c0-1.74.06-3.03.16-3.83.11-.79.45-1.74,1.03-2.82,1-1.93,3.85-2.9,8.47-2.9l20.35.11c10.55,0,19.96,3.86,27.96,11.46,8,7.6,12.06,17.08,12.06,28.18s-3.97,20.75-11.79,28.68c-7.82,7.93-17.43,11.95-28.57,11.95h-20.13c-4.41,0-7.18-.9-8.25-2.69-.87-1.51-1.3-3.86-1.3-6.98v-61.16Z"/>
        <path class="cls-9" d="m486.96,137.59c4.26-3.93,6.42-8.94,6.42-14.89s-2.1-10.99-6.25-15c-4.15-4-9.08-6.03-14.66-6.03h-10.69v41.83h10.79c5.29,0,10.13-1.99,14.38-5.92Zm-24.93-35.66h10.44c5.51,0,10.39,2.01,14.49,5.96,4.1,3.96,6.18,8.94,6.18,14.82s-2.13,10.82-6.34,14.7c-4.21,3.88-8.99,5.85-14.21,5.85h-10.54v-41.33Z"/>
        <path d="m521.25,138.11c1.93,4.84,4.42,8.86,7.4,11.95,2.99,3.1,6.4,5.75,10.15,7.9,3.75,2.15,7.44,3.7,10.97,4.61,3.53.91,7.07,1.37,10.53,1.37s7.08-.59,10.8-1.75c3.71-1.16,6.2-2.12,7.4-2.85,1.21-.73,2.48-1.5,3.79-2.31,1.31-.8,2.46-1.72,3.44-2.73.96-1,1.45-2.26,1.45-3.76s-.81-3.56-2.4-6.09c-2.6-4.05-5.05-6.1-7.26-6.1-1,0-2.75.73-5.22,2.18l-1.97,1.43c-.88.59-2.36,1.19-4.38,1.78-2.02.59-4.19.88-6.47.88-4.85,0-9.57-1.64-14.04-4.86-2.28-1.69-4.18-4.04-5.65-6.98-1.47-2.93-2.21-6.3-2.21-10.01s.74-7.08,2.21-10.01c1.47-2.94,3.33-5.25,5.54-6.86,4.62-3.3,9.38-4.97,14.15-4.97,5.14,0,9.31,1.27,12.4,3.77,2.38,1.58,4.24,2.39,5.53,2.39,2.22,0,4.78-1.98,7.6-5.89,1.52-2.09,2.29-4.12,2.29-6.03s-.95-3.62-2.81-5.13c-.73-.51-1.76-1.17-3.07-1.97l-2.64-1.54c-1.82-1.09-4.53-2.18-8.06-3.23-3.53-1.05-7.06-1.59-10.47-1.59-7.21,0-14.48,1.99-21.61,5.92-3.78,2.04-7.2,4.6-10.15,7.62-2.95,3.02-5.4,6.89-7.29,11.51-1.89,4.62-2.85,9.84-2.85,15.52s.98,11.01,2.91,15.85Z"/>
        <path class="cls-9" d="m521.02,138.2c1.94,4.87,4.45,8.92,7.45,12.03,3,3.11,6.43,5.78,10.2,7.94,3.77,2.16,7.48,3.72,11.03,4.63,3.55.92,7.12,1.38,10.59,1.38s7.13-.59,10.87-1.77c3.73-1.17,6.24-2.13,7.45-2.87,1.21-.73,2.48-1.5,3.79-2.31,1.32-.81,2.5-1.74,3.49-2.77,1.01-1.05,1.52-2.37,1.52-3.94s-.82-3.65-2.44-6.23c-2.65-4.13-5.17-6.22-7.48-6.22-1.06,0-2.81.73-5.35,2.22l-1.98,1.43c-.86.58-2.31,1.16-4.31,1.74-1.99.58-4.15.88-6.4.88-4.79,0-9.47-1.62-13.9-4.82-2.25-1.67-4.12-3.98-5.57-6.89-1.45-2.9-2.19-6.23-2.19-9.9s.74-7,2.19-9.9c1.45-2.9,3.29-5.18,5.46-6.77,4.58-3.27,9.29-4.93,14.01-4.93,5.08,0,9.2,1.25,12.25,3.72,2.43,1.62,4.34,2.44,5.68,2.44,2.31,0,4.93-2.02,7.8-5.99,1.55-2.14,2.33-4.22,2.33-6.18s-.98-3.76-2.91-5.33c-.74-.51-1.78-1.18-3.09-1.99l-2.64-1.54c-1.83-1.1-4.56-2.19-8.11-3.26-3.56-1.06-7.1-1.6-10.54-1.6-7.25,0-14.56,2-21.73,5.96-3.81,2.05-7.24,4.63-10.21,7.67-2.97,3.04-5.44,6.94-7.34,11.59-1.9,4.65-2.87,9.9-2.87,15.61s.98,11.07,2.92,15.94Zm.18-31.46c1.89-4.62,4.34-8.49,7.29-11.51,2.95-3.02,6.36-5.59,10.15-7.62,7.13-3.93,14.4-5.92,21.61-5.92,3.41,0,6.94.53,10.47,1.59,3.53,1.06,6.24,2.14,8.06,3.23l2.64,1.54c1.31.8,2.34,1.46,3.07,1.97,1.87,1.51,2.81,3.23,2.81,5.13s-.77,3.94-2.29,6.03c-2.82,3.91-5.38,5.89-7.6,5.89-1.29,0-3.15-.81-5.53-2.39-3.09-2.5-7.26-3.77-12.4-3.77-4.77,0-9.53,1.67-14.15,4.97-2.21,1.62-4.07,3.93-5.54,6.86-1.47,2.94-2.21,6.3-2.21,10.01s.74,7.08,2.21,10.01c1.47,2.94,3.37,5.29,5.65,6.98,4.47,3.23,9.2,4.86,14.04,4.86,2.28,0,4.45-.3,6.47-.88,2.02-.59,3.5-1.19,4.38-1.78l1.97-1.43c2.46-1.45,4.22-2.18,5.22-2.18,2.22,0,4.66,2.05,7.26,6.1,1.59,2.54,2.4,4.59,2.4,6.09s-.49,2.77-1.45,3.76c-.98,1.01-2.13,1.93-3.44,2.73-1.32.81-2.58,1.58-3.79,2.31-1.2.73-3.69,1.69-7.4,2.85-3.71,1.16-7.35,1.75-10.8,1.75s-7-.46-10.53-1.37c-3.53-.91-7.22-2.46-10.97-4.61-3.75-2.15-7.16-4.8-10.15-7.9-2.98-3.09-5.47-7.11-7.4-11.95-1.93-4.84-2.91-10.17-2.91-15.85s.96-10.9,2.85-15.52Z"/>
      </g>
      <path d="m669.03,205.99h-5.39s-204.63-.32-204.63-.32l-120.08-.18-145.74-.22h0s-166.14-.25-166.14-.25l6.35-167h.42s67.9.1,67.9.1l68.7.1,15.58.02,467.06.71.86-16-622.89-.95h-.02c-7.08,0-12.87,5.4-13.45,12.42-6.08,1.13-10.72,6.31-10.99,12.74L.01,219.21c-.15,3.63,1.2,7.22,3.72,9.85,2.51,2.63,6.04,4.14,9.68,4.14l641.15.98h.02c6.98,0,12.7-5.29,13.34-12.19h3.58s.02,0,.02,0c1.2,0,2.36-.17,3.46-.46.14-.04.29-.06.43-.11,3.2-.96,5.88-3.08,7.58-5.89,1.14-1.88,1.84-4.06,1.94-6.42l2.48-65.11h-16.01l-2.36,61.99Z"/>
    </g>
  </g>
</svg>